<svg xmlns="http://www.w3.org/2000/svg" width="18" height="18" viewBox="0 0 18 18">
    <defs>
        <linearGradient id="a" x1="114.146%" x2="-13.307%" y1="110.169%" y2="-6.536%">
            <stop offset="0%" stop-color="#F83600"/>
            <stop offset="100%" stop-color="#F9D423"/>
        </linearGradient>
    </defs>
    <path fill="url(#a)" fill-rule="nonzero" d="M11.09 3h-6C4.49 3 4 3.49 4 4.09v7.092a.545.545 0 0 0 1.09 0V4.09h6a.545.545 0 1 0 0-1.09zm2.183 2.182h-6c-.6 0-1.091.49-1.091 1.09v7.637c0 .6.49 1.091 1.09 1.091h6c.6 0 1.092-.49 1.092-1.09V6.272c0-.6-.491-1.091-1.091-1.091zm0 8.727h-6V6.273h6v7.636z"/>
</svg>
