<?xml version="1.0" encoding="UTF-8"?>
<svg width="226px" height="221px" viewBox="0 0 226 221" version="1.1" xmlns="http://www.w3.org/2000/svg" xmlns:xlink="http://www.w3.org/1999/xlink">
    <!-- Generator: Sketch 59.1 (86144) - https://sketch.com -->
    <title>暂无持仓</title>
    <desc>Created with Sketch.</desc>
    <defs>
        <linearGradient x1="50%" y1="-15.4160596%" x2="50%" y2="39.3690501%" id="linearGradient-1">
            <stop stop-color="#E5E5E9" offset="0%"></stop>
            <stop stop-color="#FFFFFF" offset="100%"></stop>
        </linearGradient>
        <linearGradient x1="90.5242203%" y1="55.3270265%" x2="0%" y2="34.7942224%" id="linearGradient-2">
            <stop stop-color="#FFFFFF" stop-opacity="0" offset="0%"></stop>
            <stop stop-color="#9E9DA1" offset="98.5140414%"></stop>
            <stop stop-color="#D8D8D8" offset="100%"></stop>
        </linearGradient>
        <linearGradient x1="50%" y1="7.68357301%" x2="50%" y2="100%" id="linearGradient-3">
            <stop stop-color="#E6E5E8" offset="0%"></stop>
            <stop stop-color="#C8C7CC" offset="100%"></stop>
        </linearGradient>
        <linearGradient x1="50%" y1="0%" x2="50%" y2="100%" id="linearGradient-4">
            <stop stop-color="#616265" offset="0%"></stop>
            <stop stop-color="#8E8E8E" offset="100%"></stop>
        </linearGradient>
        <path d="M0.011294867,2.24481358 C0.251090784,4.83112782 4.0664166,10.1102947 7.21913367,10.1102947 C10.9188093,10.4456791 13.2779924,7.70984156 13.2147814,5.72234991 C12.4107993,4.23734324 12.857456,0.802596295 7.21913367,0.495944278 C5.78371093,1.29823844 5.94954365,1.00731726 4.22254403,0.974475494 C3.42079212,0.959228848 -0.22850105,-0.341500662 0.011294867,2.24481358 Z" id="path-5"></path>
        <linearGradient x1="19.5333182%" y1="36.1372913%" x2="80.3580256%" y2="56.046887%" id="linearGradient-7">
            <stop stop-color="#FFBF00" offset="0%"></stop>
            <stop stop-color="#FFA700" offset="100%"></stop>
        </linearGradient>
    </defs>
    <g id="暂无持仓" stroke="none" stroke-width="1" fill="none" fill-rule="evenodd">
        <g id="插画">
            <g>
                <circle id="椭圆形" fill="url(#linearGradient-1)" cx="166" cy="145" r="60"></circle>
                <circle id="椭圆形" fill="url(#linearGradient-1)" cx="42" cy="145" r="42"></circle>
                <polygon id="路径-3" fill="url(#linearGradient-2)" points="46 160.393899 176 221 164.559448 152 46 157.821784"></polygon>
                <rect id="矩形" fill="url(#linearGradient-3)" x="44" y="0" width="124" height="162" rx="6"></rect>
                <rect id="矩形" fill="#EFEFF1" x="54" y="8" width="109" height="145" rx="6"></rect>
                <rect id="矩形" fill="#FFFFFF" x="63" y="23" width="38" height="20" rx="2"></rect>
                <rect id="矩形" fill="#FFFFFF" x="110" y="23" width="38" height="6" rx="2"></rect>
                <rect id="矩形" fill="#FFFFFF" x="110" y="37" width="38" height="6" rx="2"></rect>
                <g id="编组-3" transform="translate(176.000000, 29.000000)">
                    <path d="M13.0646245,-7.10542736e-15 C18.636281,0.273391345 20.1688686,2.13585588 20.1688686,10.1358559 C20.1688686,18.1358559 31.7033533,21.1615468 31.7033533,28.8149822 C31.7033533,36.4684175 19.022028,44.1358559 9.70192938,44.1358559 C0.381830754,44.1358559 -2.73162885,32.169585 2.59915373,28.8149822 C9.70192938,22.0679592 -1.43914887,7.33287191 13.0646245,-7.10542736e-15 Z" id="路径-53" fill="#EDEDF0"></path>
                    <path d="M12.1550076,15.2451013 C10.4846185,21.9712216 11.0250969,28.4678774 13.7764427,34.7350688 C16.5277886,41.0022602 17.2195332,50.0478305 15.8516767,61.8717799" id="路径-54" stroke="#E0DDDD" stroke-width="2" stroke-linecap="round"></path>
                    <path d="M19.7054971,20.2493224 C20.3373105,27.6914965 18.3923928,32.5104864 13.8707441,34.7062918" id="路径-55" stroke="#E0DDDD" stroke-width="2" stroke-linecap="round"></path>
                </g>
                <g id="编组-3" transform="translate(17.000000, 69.000000)">
                    <path d="M7.83877469,-7.10542736e-15 C11.1817686,0.164034807 12.1013211,1.28151353 12.1013211,6.08151353 C12.1013211,10.8815135 19.022012,12.6969281 19.022012,17.2889893 C19.022012,21.8810505 11.4132168,26.4815135 5.82115763,26.4815135 C0.229098452,26.4815135 -1.63897731,19.301751 1.55949224,17.2889893 C5.82115763,13.2407755 -0.863489323,4.39972314 7.83877469,-7.10542736e-15 Z" id="路径-53" fill="#EDEDF0"></path>
                    <path d="M7.29300458,9.14706077 C6.29077113,13.182733 6.61505815,17.0807265 8.26586564,20.8410413 C9.91667314,24.6013561 10.3317199,30.0286983 9.511006,37.1230679" id="路径-54" stroke="#E0DDDD" stroke-width="1.2" stroke-linecap="round"></path>
                    <path d="M11.8232982,12.1495934 C12.2023863,16.6148979 11.0354357,19.5062918 8.32244645,20.8237751" id="路径-55" stroke="#E0DDDD" stroke-width="1.2" stroke-linecap="round"></path>
                </g>
                <g id="小人" transform="translate(129.000000, 97.000000)">
                    <path d="M4.17200247,0 C6.3107305,0.136173695 7.68117421,0.774204922 8.2833336,1.91409368 C9.18657267,3.62392682 15.4340198,8.67513449 15.4340198,11.5477731 C15.4340198,13.4628656 14.2371889,13.6972515 11.8435269,12.2509309 C10.1227233,6.80920717 8.41393497,4.08834529 6.71716197,4.08834529 C5.02038897,4.08834529 4.17200247,2.72556353 4.17200247,0 Z" id="路径-56" fill="#FFC8BA"></path>
                    <path d="M9.84293342,14.9712196 C8.0244992,19.3047089 8.65897457,22.0655808 11.7463595,23.2538351 C11.7463595,24.5033559 11.6642397,25.2707188 11.5,25.555924 L19.5897318,28.5726427 C16.8192572,23.7235688 16.4945029,20.8189286 18.6154692,19.8587219 C19.1845429,18.8998485 16.2603643,17.2706811 9.84293342,14.9712196 Z" id="路径-58" fill="#FFD1C5"></path>
                    <path d="M0.675192225,31.6786638 C-0.225064075,33.9146662 -0.225064075,35.9124911 0.675192225,37.6721384 C2.02557667,40.3116094 2.75017321,44.1136064 4.29817489,44.1136064 C5.84617658,44.1136064 10.6377846,37.7718619 9.72289002,35.0826817 C9.11296028,33.2898948 7.6583795,33.0795707 5.35914768,34.4517094 L4.29817489,38.4006995 C2.98499616,37.8072378 2.32840679,35.9828363 2.32840679,32.9274949 C2.13912526,32.0437067 1.58805374,31.6274297 0.675192225,31.6786638 Z" id="路径-60" fill="#FFC8BA"></path>
                    <path d="M5.47352925,90.0027714 C9.35837509,89.965769 11.443115,90.2992989 11.7277488,91.0033611 C12.1546997,92.0594545 11.1397766,93.8993075 11.1397766,93.8993075 C11.1397766,93.8993075 7.6278011,93.9505416 5.03194012,91.0033611 C4.92865868,90.5501833 5.07585506,90.2166534 5.47352925,90.0027714 Z" id="路径-62" fill="#282C35"></path>
                    <path d="M13.7002215,89.4231832 C17.5850673,89.3861808 19.6698072,89.7197107 19.9544411,90.4237729 C20.3813919,91.4798663 19.3664688,93.3197193 19.3664688,93.3197193 C19.3664688,93.3197193 15.8544933,93.3709534 13.2586323,90.4237729 C13.1553509,89.9705951 13.3025473,89.6370652 13.7002215,89.4231832 Z" id="路径-62备份" fill="#282C35"></path>
                    <path d="M6.20573016,54.9956679 C5.98046278,61.7978077 6.13142039,67.1201563 6.658603,70.9627137 C7.44937691,76.7265497 8.06327119,91.2687996 8.06327119,91.2687996 C8.06327119,91.2687996 8.51809785,92.0333126 9.56877068,92.3770419 C9.89524944,92.48385 10.4904616,92.3413969 11.354407,91.9496827 C11.7769151,84.5285463 11.9881691,79.9537011 11.9881691,78.2251471 C11.9881691,75.6323162 12.484905,69.6958858 13.7584383,66.7698666 C14.7925742,67.2355479 14.2101431,69.3241374 14.2101431,71.5052462 C14.2101431,72.9593187 15.0019336,79.0414364 16.5855145,89.7515994 C16.7923443,91.1309848 17.8000498,91.6704831 19.6086313,91.3700945 C19.6504115,89.9587171 20.0203339,77.6252812 19.6086313,74.5652637 C19.1969287,71.5052462 22.9675144,57.8995434 21.0822215,53.7315885 C19.8253597,50.9529519 14.8665292,51.3743117 6.20573016,54.9956679 Z" id="路径-61" fill="url(#linearGradient-4)"></path>
                    <path d="M4.0871392,34.654511 C4.89041667,28.7638095 7.46167716,25.5082079 11.8009207,24.887706 C12.2242119,26.4427219 16.0762232,27.7071063 17.4549694,24.887706 C17.5279576,23.75344 17.3964161,22.9559569 17.0603448,22.4952566 C19.5634965,20.9002903 21.078562,20.9002903 21.6055413,22.4952566 C22.5747196,23.6495487 23.4850398,29.0885971 21.6055413,32.5685513 C21.5762646,35.2252019 21.5762646,42.6029121 21.6055413,54.7016818 C18.0278967,58.6365418 12.5884416,58.6365418 5.28717597,54.7016818 C5.13133892,50.8008761 5.68515513,40.73978 6.19444646,39.8901479 C6.53397402,39.3237265 6.77276151,37.8323466 6.91080895,35.4160083 L4.0871392,34.654511 Z" id="路径-59" fill="#FFA700"></path>
                    <g id="路径-4" transform="translate(7.714422, 10.183069)">
                        <mask id="mask-6" fill="white">
                            <use xlink:href="#path-5"></use>
                        </mask>
                        <use id="蒙版" fill="#FFA700" xlink:href="#path-5"></use>
                        <path d="M5.14876283,1.03006671 C1.71625428,2.77204742 1.37830024,5.45868512 4.13490072,9.08997981 C6.8915012,12.7212745 9.91854126,13.5542354 13.2160209,11.5888626 C13.5040355,4.19358372 13.6480429,0.495944278 13.6480429,0.495944278 C13.6480429,0.495944278 6.77831501,-1 6.49638328,-1 C6.3084288,-1 5.85922198,-0.323311097 5.14876283,1.03006671 Z" fill="url(#linearGradient-7)" mask="url(#mask-6)"></path>
                    </g>
                </g>
                <rect id="矩形" fill="#D7D7DD" transform="translate(81.000000, 151.500000) rotate(-15.000000) translate(-81.000000, -151.500000) " x="58" y="139" width="46" height="25" rx="6"></rect>
                <rect id="矩形" fill="#E2E2E6" x="75" y="136" width="46" height="38" rx="6"></rect>
                <polygon id="路径-63" fill="#F5F5F5" points="80.3975962 173 90.8335398 151.864742 98 166.518154 103.178545 157.366736 115.851208 173"></polygon>
                <path d="M8,157 L48,157 L48,165 C48,167.761424 39.045695,170 28,170 C16.954305,170 8,167.761424 8,165 L8,165 L8,157 Z" id="椭圆形-3" fill="#C9C8CD"></path>
                <ellipse id="椭圆形" fill="#EFEFF1" cx="28" cy="157" rx="20" ry="5"></ellipse>
            </g>
        </g>
    </g>
</svg>