<?xml version="1.0" encoding="UTF-8"?>
<svg width="20px" height="20px" viewBox="0 0 20 20" version="1.1" xmlns="http://www.w3.org/2000/svg" xmlns:xlink="http://www.w3.org/1999/xlink">
    <!-- Generator: Sketch 56 (81588) - https://sketch.com -->
    <title>zz</title>
    <desc>Created with Sketch.</desc>
    <g id="2.0" stroke="none" stroke-width="1" fill="none" fill-rule="evenodd">
        <g id="2.1.3-首页-邀请活动" transform="translate(-303.000000, -144.000000)" fill="#FFFFFF" fill-rule="nonzero">
            <g id="分组-13">
                <g id="分组-19" transform="translate(48.000000, 144.000000)">
                    <path d="M265,20 C259.486222,20 255,15.5137778 255,10 C255,4.48622223 259.486222,0 265,0 C270.515111,0 275,4.48622223 275,10 C275,15.5137778 270.515111,20 265,20 Z M265,1.762 C260.457778,1.762 256.762,5.45777777 256.762,10 C256.762,14.5408889 260.457778,18.2366667 265,18.2366667 C269.543556,18.2366667 273.238,14.5422222 273.238,10 C273.238,5.45777777 269.542222,1.762 265,1.762 Z M269.465556,14.4655555 C269.120889,14.81 268.562222,14.81 268.217556,14.4655555 L265.098,11.3457778 L261.978444,14.4655555 C261.633778,14.81 261.075111,14.81 260.730667,14.4655555 C260.386,14.1208889 260.386,13.5622222 260.730667,13.2175555 L263.850222,10.098 L260.730667,6.97844445 C260.386,6.63377777 260.386,6.07511111 260.730667,5.73066666 C261.075111,5.386 261.633778,5.386 261.978444,5.73066666 L265.098,8.85022223 L268.217556,5.73066666 C268.562222,5.386 269.120889,5.386 269.465556,5.73066666 C269.81,6.07511111 269.81,6.63377777 269.465556,6.97844445 L266.345778,10.098 L269.465556,13.2175555 C269.81,13.5622222 269.81,14.1208889 269.465556,14.4655555 Z" id="zz"></path>
                </g>
            </g>
        </g>
    </g>
</svg>