<svg xmlns="http://www.w3.org/2000/svg" width="48" height="48" viewBox="0 0 48 48">
    <g fill="none" fill-rule="evenodd">
        <path d="M0 0H48V48H0z"/>
        <path fill="#282C35" d="M40 36c1.105 0 2 .895 2 2s-.895 2-2 2H8c-1.105 0-2-.895-2-2s.895-2 2-2h32zm0-10c1.105 0 2 .895 2 2s-.895 2-2 2H24c-1.105 0-2-.895-2-2s.895-2 2-2h16zm0-10c1.105 0 2 .895 2 2s-.895 2-2 2H24c-1.105 0-2-.895-2-2s.895-2 2-2h16zm0-10c1.105 0 2 .895 2 2s-.895 2-2 2H8c-1.105 0-2-.895-2-2s.895-2 2-2h32z"/>
        <path fill="#FFA700" d="M17.722 24.627l-8.56 6.114c-.898.642-2.147.434-2.79-.465C6.13 29.936 6 29.53 6 29.114V16.886c0-1.104.895-2 2-2 .417 0 .823.13 1.162.373l8.56 6.114c.898.642 1.107 1.89.465 2.79-.129.18-.286.336-.465.464z"/>
    </g>
</svg>
