<svg xmlns="http://www.w3.org/2000/svg" xmlns:xlink="http://www.w3.org/1999/xlink" width="59.941" height="59.941" viewBox="0 0 59.941 59.941">
  <defs>
    <clipPath id="clip-path">
      <path id="Clip_2" data-name="Clip 2" d="M0,0H59.941V59.941H0Z" transform="translate(0.004 0.059)" fill="none"/>
    </clipPath>
  </defs>
  <g id="充值" transform="translate(-0.004 -0.059)">
    <g id="编组">
      <path id="Clip_2-2" data-name="Clip 2" d="M0,0H59.941V59.941H0Z" transform="translate(0.004 0.059)" fill="none"/>
    </g>
    <path id="路径" d="M50.923,39.529A27,27,0,1,0,27,54H50.923l-7.5-8.462" transform="translate(3 3)" fill="none" stroke="#282c35" stroke-linecap="round" stroke-linejoin="round" stroke-miterlimit="10" stroke-width="4"/>
    <path id="Fill_4" data-name="Fill 4" d="M.643.6a1.953,1.953,0,0,0,0,2.9l7.25,6.743H2.2A2.128,2.128,0,0,0,0,12.289a2.128,2.128,0,0,0,2.2,2.047H8.8v4.108H2.2a2.053,2.053,0,1,0,0,4.095H8.8v3.414A2.128,2.128,0,0,0,11,28a2.128,2.128,0,0,0,2.2-2.047V22.539h6.6a2.053,2.053,0,1,0,0-4.095H13.2V14.35h6.6A2.128,2.128,0,0,0,22,12.3a2.128,2.128,0,0,0-2.2-2.047H14.109l7.245-6.743a1.95,1.95,0,0,0,0-2.9,2.319,2.319,0,0,0-3.113,0L11,7.339,3.761.6A2.291,2.291,0,0,0,2.2,0,2.29,2.29,0,0,0,.643.6Z" transform="translate(19 16)" fill="#fff"/>
  </g>
</svg>
