<svg xmlns="http://www.w3.org/2000/svg" width="32" height="32" viewBox="0 0 32 32">
    <defs>
        <linearGradient id="a" x1="95.965%" x2="11.156%" y1="50%" y2="50%">
            <stop offset="0%" stop-color="#FFF"/>
            <stop offset="100%" stop-color="#FF9A41"/>
        </linearGradient>
        <linearGradient id="b" x1="94.869%" x2="9.994%" y1="54.261%" y2="54.261%">
            <stop offset="0%" stop-color="#FFF"/>
            <stop offset="100%" stop-color="#FF9A41"/>
        </linearGradient>
    </defs>
    <g fill="none" fill-rule="evenodd">
        <g transform="matrix(1 0 0 -1 1 31)">
            <path fill="#333" fill-rule="nonzero" d="M0 22V5a5 5 0 0 1 5-5h22a2 2 0 0 1 2 2v15c0 1-1 2-2 2H5a3 3 0 0 0 0 6 1 1 0 0 1 0 2 5 5 0 0 1-5-5zm27-5V2H5a3 3 0 0 0-3 3v13c.836-.628 1.874-1 3-1h22z"/>
            <path fill="url(#a)" d="M16 5h15v9H16a2 2 0 0 1-2-2V7a2 2 0 0 1 2-2z"/>
            <circle cx="19" cy="9.5" r="2" fill="#FFF"/>
        </g>
        <path fill="url(#b)" d="M16.95 3.45h9.5v5h-9.5v2.45L12 5.95 16.95 1v2.45z"/>
    </g>
</svg>
