<svg xmlns="http://www.w3.org/2000/svg" width="62" height="62" viewBox="0 0 62 62">
    <defs>
        <path id="a" d="M.004.059h59.941v59.94H.005z"/>
    </defs>
    <g fill="none" fill-rule="evenodd">
        <path stroke="#282C35" stroke-linecap="round" stroke-linejoin="round" stroke-width="4" d="M54.923 43.53A26.883 26.883 0 0 0 58 31C58 16.088 45.912 4 31 4S4 16.088 4 31s12.088 27 27 27h23.923l-7.504-8.462"/>
        <path fill="#FFA700" d="M20.643 17.601a1.953 1.953 0 0 0 0 2.897l7.25 6.743h-5.69c-1.216 0-2.2.917-2.2 2.048 0 1.13.984 2.047 2.2 2.047h6.599v4.108h-6.6c-1.215 0-2.2.917-2.2 2.047 0 1.131.985 2.048 2.2 2.048h6.6v3.414c0 1.13.984 2.047 2.2 2.047 1.214 0 2.2-.917 2.2-2.047v-3.414H39.8c1.215 0 2.2-.917 2.2-2.048 0-1.13-.985-2.047-2.2-2.047h-6.599V31.35h6.6c1.214 0 2.199-.917 2.199-2.048 0-1.13-.985-2.047-2.2-2.047h-5.69l7.244-6.743c.86-.8.86-2.097 0-2.898-.86-.8-2.253-.8-3.113 0l-7.24 6.725-7.24-6.738A2.291 2.291 0 0 0 22.202 17a2.29 2.29 0 0 0-1.559.601z"/>
    </g>
</svg>
