<svg xmlns="http://www.w3.org/2000/svg" width="38" height="21" viewBox="0 0 38 21">
    <g fill="#282C35" fill-rule="nonzero">
        <path d="M34.55.73c-5.11 6.354-10.214 9.437-15.326 9.437-5.13 0-10.446-3.104-15.938-9.485a1.867 1.867 0 1 0-2.83 2.436C6.594 10.248 12.847 13.9 19.224 13.9c6.398 0 12.48-3.673 18.235-10.83a1.867 1.867 0 0 0-2.91-2.34z"/>
        <path d="M5.84 8.304l-3.556 4.114a1.333 1.333 0 1 0 2.018 1.744l3.555-4.114A1.333 1.333 0 0 0 5.84 8.304zm7.182 4.828l-1.423 5.69a1.333 1.333 0 0 0 2.588.646l1.422-5.69a1.333 1.333 0 0 0-2.587-.646zm10.325.233l2 5.688a1.333 1.333 0 0 0 2.515-.884l-2-5.689a1.333 1.333 0 0 0-2.515.885zm7.257-4.846l4.114 4.114a1.334 1.334 0 0 0 1.886-1.886L32.49 6.633a1.334 1.334 0 1 0-1.886 1.886z"/>
    </g>
</svg>
