<?xml version="1.0" encoding="UTF-8"?>
<svg width="169px" height="70px" viewBox="0 0 169 70" version="1.1" xmlns="http://www.w3.org/2000/svg" xmlns:xlink="http://www.w3.org/1999/xlink">
    <!-- Generator: Sketch 59.1 (86144) - https://sketch.com -->
    <title>猜涨跌</title>
    <desc>Created with Sketch.</desc>
    <defs>
        <linearGradient x1="100%" y1="57.1090665%" x2="-0.425389107%" y2="44.3340895%" id="linearGradient-1">
            <stop stop-color="#424CCA" offset="0%"></stop>
            <stop stop-color="#519FFF" offset="100%"></stop>
        </linearGradient>
        <rect id="path-2" x="-5.68434189e-14" y="0" width="168.002967" height="70" rx="5"></rect>
        <linearGradient x1="4.1820373%" y1="28.8324192%" x2="43.574407%" y2="71.3648545%" id="linearGradient-4">
            <stop stop-color="#7EAEE7" offset="0%"></stop>
            <stop stop-color="#4A7CE3" stop-opacity="0" offset="100%"></stop>
        </linearGradient>
        <linearGradient x1="4.1820373%" y1="37.8720878%" x2="43.574407%" y2="62.2409397%" id="linearGradient-5">
            <stop stop-color="#7EAEE7" offset="0%"></stop>
            <stop stop-color="#4A7CE3" stop-opacity="0" offset="100%"></stop>
        </linearGradient>
        <linearGradient x1="-2.00801833%" y1="49.9732627%" x2="40.5005928%" y2="50.0619268%" id="linearGradient-6">
            <stop stop-color="#FFFFFF" stop-opacity="0.728010271" offset="0%"></stop>
            <stop stop-color="#FFD346" stop-opacity="0.40387347" offset="99.9023438%"></stop>
        </linearGradient>
        <linearGradient x1="85.4547037%" y1="43.9764635%" x2="0%" y2="43.9764635%" id="linearGradient-7">
            <stop stop-color="#5CBFFF" offset="0%"></stop>
            <stop stop-color="#60CEC6" offset="100%"></stop>
        </linearGradient>
        <linearGradient x1="85.4547037%" y1="43.9764635%" x2="0%" y2="43.9764635%" id="linearGradient-8">
            <stop stop-color="#5CBFFF" offset="0%"></stop>
            <stop stop-color="#60CEC6" offset="100%"></stop>
        </linearGradient>
        <linearGradient x1="85.4547037%" y1="43.9764635%" x2="0%" y2="43.9764635%" id="linearGradient-9">
            <stop stop-color="#5CBFFF" offset="0%"></stop>
            <stop stop-color="#60CEC6" offset="100%"></stop>
        </linearGradient>
        <linearGradient x1="86.9945936%" y1="50%" x2="0%" y2="50%" id="linearGradient-10">
            <stop stop-color="#FFC48D" offset="0%"></stop>
            <stop stop-color="#EB705C" offset="100%"></stop>
        </linearGradient>
        <linearGradient x1="86.9945936%" y1="50%" x2="0%" y2="50%" id="linearGradient-11">
            <stop stop-color="#FFC48D" offset="0%"></stop>
            <stop stop-color="#EB705C" offset="100%"></stop>
        </linearGradient>
        <linearGradient x1="86.9945936%" y1="50%" x2="0%" y2="50%" id="linearGradient-12">
            <stop stop-color="#FFB388" offset="0%"></stop>
            <stop stop-color="#F8725C" offset="100%"></stop>
        </linearGradient>
        <path d="M27.9221932,26.7391007 L34.8177072,10.4688427 L40.8783383,10.4688427 L29.9939396,32.9020772 L24.2116028,32.9020772 L20.4391691,10.4688427 L26.1596628,10.4688427 L27.9221932,26.7391007 Z M51.741528,27.0429168 C51.9688443,25.8890328 51.3385677,24.9955519 49.8506793,24.3624473 L47.3088826,23.3208935 C43.7441499,21.7381321 42.0496358,19.5835667 42.2252893,16.8571327 C42.2976172,15.6113463 42.7315781,14.5008772 43.5271851,13.525692 C44.3227921,12.5505068 45.4231931,11.7923244 46.828421,11.2511221 C48.233649,10.7099198 49.7680109,10.449534 51.4315528,10.4699567 C53.6633854,10.5108022 55.4586405,11.1541084 56.817372,12.3998948 C58.1761034,13.6456811 58.8451265,15.315214 58.8244614,17.4085435 L53.554883,17.4085435 C53.5858806,16.550789 53.4024805,15.8640851 53.004677,15.3484112 C52.6068735,14.8327374 51.953349,14.5646931 51.0440838,14.5442704 C50.1554838,14.5238477 49.3702211,14.7280719 48.6882723,15.1569491 C48.0063234,15.5858264 47.6033597,16.1627598 47.479369,16.8877666 C47.2830504,17.908903 48.0502313,18.7462222 49.7809349,19.3997495 C51.5116384,20.0532767 52.7696085,20.6148933 53.554883,21.084616 C56.0243644,22.544841 57.1815936,24.5156046 57.0266052,26.9969659 C56.9439448,28.2835977 56.5254824,29.4119365 55.7712057,30.382016 C55.0169289,31.3520956 53.970773,32.1026195 52.6327067,32.6336104 C51.2946404,33.1646013 49.7938588,33.4198816 48.1303169,33.3994589 C46.911075,33.3790361 45.7796768,33.1901287 44.7360884,32.832731 C43.6925,32.4753333 42.7987471,31.9545616 42.0548029,31.2704002 C40.5462494,29.8918661 39.8229811,28.0793763 39.8849765,25.8328763 L45.2010512,25.8481933 C45.1390559,26.991866 45.3612025,27.8572661 45.8674979,28.4444195 C46.3737933,29.0315729 47.2262166,29.3251452 48.4247933,29.3251452 C49.3133934,29.3251452 50.0547433,29.1234738 50.6488654,28.7201249 C51.2429875,28.3167761 51.6072048,27.7577123 51.741528,27.0429168 Z" id="path-13"></path>
        <filter x="-26.5%" y="-34.9%" width="152.6%" height="187.2%" filterUnits="objectBoundingBox" id="filter-14">
            <feMorphology radius="0.5" operator="dilate" in="SourceAlpha" result="shadowSpreadOuter1"></feMorphology>
            <feOffset dx="0" dy="2" in="shadowSpreadOuter1" result="shadowOffsetOuter1"></feOffset>
            <feGaussianBlur stdDeviation="2.5" in="shadowOffsetOuter1" result="shadowBlurOuter1"></feGaussianBlur>
            <feColorMatrix values="0 0 0 0 0.221524004   0 0 0 0 0.19244733   0 0 0 0 0.162078071  0 0 0 0.350688374 0" type="matrix" in="shadowBlurOuter1"></feColorMatrix>
        </filter>
    </defs>
    <g id="页面-1" stroke="none" stroke-width="1" fill="none" fill-rule="evenodd">
        <g id="画板" transform="translate(-1220.000000, -2287.000000)">
            <g id="猜涨跌" transform="translate(1221.000000, 2287.000000)">
                <mask id="mask-3" fill="white">
                    <use xlink:href="#path-2"></use>
                </mask>
                <use id="蒙版" fill="url(#linearGradient-1)" xlink:href="#path-2"></use>
                <g id="背景" mask="url(#mask-3)">
                    <g transform="translate(-48.938260, -48.868229)" id="矩形">
                        <polygon fill="url(#linearGradient-4)" opacity="0.321591332" transform="translate(66.134106, 69.345997) rotate(-231.000000) translate(-66.134106, -69.345997) " points="8.5554707 31.7080146 123.712741 31.7080146 123.712741 106.983979 8.5554707 106.983979"></polygon>
                        <polygon fill="url(#linearGradient-5)" opacity="0.449428013" transform="translate(66.200155, 67.939520) rotate(-231.000000) translate(-66.200155, -67.939520) " points="18.3425882 44.2599952 114.057722 44.2599952 114.057722 91.6190456 18.3425882 91.6190456"></polygon>
                        <polygon fill="url(#linearGradient-6)" opacity="0.647460938" transform="translate(204.985715, 147.729549) rotate(-231.000000) translate(-204.985715, -147.729549) " points="162.861086 146.483258 247.110345 146.483258 247.110345 148.97584 162.861086 148.97584"></polygon>
                        <polygon fill="url(#linearGradient-6)" opacity="0.24" transform="translate(194.574222, 148.823841) rotate(-231.000000) translate(-194.574222, -148.823841) " points="152.449593 147.57755 236.698851 147.57755 236.698851 150.070132 152.449593 150.070132"></polygon>
                    </g>
                </g>
                <path d="M24.2116083,16 L24.2116083,17.0229555 L20.3351454,17.0229555 L20.3351454,18.4227893 L24.2116083,18.4227893 L24.2116083,19.2842255 L20.7658635,19.2842255 L20.7658635,20.6481662 L24.2116083,20.6481662 L24.2116083,21.5454955 L19.7070148,21.5454955 L19.7070148,22.9453294 L30.4570208,22.9453294 L30.4570208,21.5454955 L25.8447478,21.5454955 L25.8447478,20.6481662 L29.3802255,20.6481662 L29.3802255,19.2842255 L25.8447478,19.2842255 L25.8447478,18.4227893 L29.9904095,18.4227893 L29.9904095,17.0229555 L25.8447478,17.0229555 L25.8447478,16 L24.2116083,16 Z M22.5066825,27.485816 L27.6214599,27.485816 L27.6214599,28.4549318 L22.5066825,28.4549318 L22.5066825,27.485816 Z M27.6214599,26.1936617 L22.5066825,26.1936617 L22.5066825,25.1707062 L27.6214599,25.1707062 L27.6214599,26.1936617 Z M22.5066825,29.7291395 L27.6214599,29.7291395 L27.6214599,30.4290564 C27.6214599,30.8238813 27.4419941,31.0392404 27.1189555,31.0392404 L25.7550148,30.9495074 L26.1677864,32.4570208 L27.6035134,32.4570208 C28.6982552,32.4570208 29.2545994,31.9006766 29.2545994,30.7879881 L29.2545994,23.788819 L20.8914896,23.788819 L20.8914896,32.5647003 L22.5066825,32.5647003 L22.5066825,29.7291395 Z M14.7896499,30.752095 L15.2921543,32.3493412 L15.5451298,32.3516061 C15.8566963,32.3564313 16.2273709,32.3672878 16.6740415,32.3672878 C17.391905,32.3672878 17.9661958,32.2057685 18.3969139,31.9006766 C19.1147774,31.2904926 19.4916558,29.531727 19.4916558,26.5884866 C19.437816,23.9323917 19.1506706,21.8864807 18.6302196,20.4507537 C18.5225401,20.1636083 18.3789674,19.8764629 18.2353947,19.5893175 C18.827632,18.8535074 19.4198694,17.956178 20.0300534,16.8973294 L18.612273,16.0179466 C18.1995015,16.7717033 17.7687834,17.4716202 17.3201187,18.0818042 C16.8894006,17.5075134 16.4048427,16.915276 15.8305519,16.3409852 L14.4845579,17.3818872 C15.1665282,17.9920712 15.740819,18.656095 16.2253769,19.3739585 C15.5434065,20.0559288 14.8075964,20.612273 14.0179466,21.0429911 L14.9332226,22.5146113 C15.740819,21.9403205 16.4407359,21.3839763 17.0329733,20.8455786 L17.1406528,21.132724 C17.3201187,21.6352285 17.4636914,22.2095193 17.5893175,22.873543 C16.7278813,24.30927 15.5434065,25.5475846 14,26.5884866 L14.9870623,28.0242136 C16.0638576,27.2166172 16.9970801,26.2475015 17.8226231,25.1168665 L17.8430105,25.6509569 C17.8520555,25.9266165 17.8585163,26.2151976 17.8585163,26.5167003 L17.8562117,26.9299669 C17.8332088,28.9427144 17.6386706,30.1520059 17.3021721,30.5726291 C17.1406528,30.752095 16.8176142,30.8597745 16.3151098,30.8597745 C15.8305519,30.8597745 15.3280475,30.8238813 14.7896499,30.752095 Z M45.2589674,24.5425757 C45.4025401,27.6832285 46.317816,30.3931632 48.0047953,32.6903264 L49.1533769,31.5417448 C47.6638101,29.6394065 46.8382671,27.3063501 46.6946944,24.5425757 L48.884178,24.5425757 L48.884178,22.9812226 L43.9847596,22.9812226 L43.9847596,16.0717864 L42.4234065,16.0717864 L42.4234065,22.9812226 L41.3466113,22.9812226 L41.3466113,24.5425757 L42.4234065,24.5425757 L42.4234065,30.3752166 C42.4234065,30.662362 42.2080475,30.8956677 41.8132226,31.0571869 L42.5131395,32.5288071 C43.8770801,32.1698754 45.0615549,31.7032641 46.102457,31.1289733 L45.8153116,29.5855668 C45.2051276,29.9624451 44.5949436,30.2675371 43.9847596,30.5008427 L43.9847596,24.5425757 L45.2589674,24.5425757 Z M38.2597982,22.1736261 L40.9338398,22.1736261 L40.9338398,16.5922374 L36.6446053,16.5922374 L36.6446053,18.1715371 L39.2827537,18.1715371 L39.2827537,20.5763798 L36.8061246,20.5763798 L36.3933531,26.2833947 L39.3545401,26.2833947 L39.3510534,27.0862799 C39.3377998,28.5433845 39.2874065,29.5297329 39.2109674,30.0342315 C39.1032878,30.6264688 38.7264095,30.9315608 38.0803323,30.9315608 C37.6855074,30.9315608 37.3265757,30.8956677 36.9676439,30.8597745 L37.3445223,32.3493412 C37.7214006,32.3852344 38.0803323,32.4211276 38.4392641,32.4211276 C39.7852582,32.3313947 40.5569614,31.7750504 40.7364273,30.7341484 L40.7641819,30.5493456 C40.9081929,29.5071358 40.9876795,27.5597137 40.9876795,24.7220415 L38.0623858,24.7220415 L38.2597982,22.1736261 Z M33.9705638,16.2333056 L32.8219822,17.3280475 C33.8628843,18.26127 34.6884273,19.1406528 35.2986113,19.9661958 L36.4830861,18.7817211 C35.8011157,17.9382315 34.9576261,17.0947418 33.9705638,16.2333056 Z M33.5757389,20.5225401 L32.4271573,21.6172819 C33.4860059,22.5863976 34.311549,23.4657804 34.8858398,24.2913234 L36.052368,23.1247953 C35.3703976,22.2633591 34.5448546,21.3839763 33.5757389,20.5225401 Z M34.5986944,25.3322255 C34.0244036,27.485816 33.3244866,29.6214599 32.5348368,31.7032641 L34.0602967,32.3493412 C34.7781602,30.3393234 35.4601306,28.1857329 36.0703145,25.9065163 L34.5986944,25.3322255 Z M47.843276,16.9691157 C46.8382671,18.7278813 45.6358457,20.0559288 44.2360119,20.9353116 L45.0974481,22.1197864 C46.6049614,21.222457 47.9150623,19.8405697 49.0456973,17.9382315 L47.843276,16.9691157 Z M51.6439644,16.6281306 L51.6439644,22.5863976 L54.1026469,22.5863976 L54.1026469,29.8547656 C53.7616617,29.9265519 53.40273,30.0162849 53.0437982,30.1060178 L53.0437982,24.1836439 L51.5362849,24.1836439 L51.5362849,30.447003 C51.2670861,30.4828961 50.9978872,30.5367359 50.7286884,30.6085223 L51.2132463,32.2416617 C53.618089,31.7212107 55.7178398,31.1469199 57.5483917,30.5367359 L57.5483917,28.8318101 L56.8279439,29.0546349 C56.4622642,29.1692059 56.0875395,29.2876534 55.6998932,29.4061009 L55.6998932,26.6782196 L57.6022315,26.6782196 L57.6022315,25.0630267 L55.6998932,25.0630267 L55.6998932,22.5863976 L57.404819,22.5863976 L57.404819,16.6281306 L51.6439644,16.6281306 Z M55.7896261,21.0070979 L53.2771039,21.0070979 L53.2771039,18.2074303 L55.7896261,18.2074303 L55.7896261,21.0070979 Z M60.1685935,20.7378991 C59.8993947,21.6352285 59.5943027,22.4787181 59.2712641,23.2324748 L57.8714303,22.353092 C58.6072404,20.7020059 59.145638,18.9252938 59.4686766,17.0588487 L60.9223501,17.3639407 C60.8146706,17.9741246 60.7069911,18.5484154 60.581365,19.0868131 L61.9453056,19.0868131 L61.9453056,16.0538398 L63.5604985,16.0538398 L63.5604985,19.0868131 L66.3063264,19.0868131 L66.3063264,20.7378991 L63.5425519,20.7378991 C63.5066588,21.8505875 63.4169258,22.8914896 63.2912997,23.8426588 L66.9703501,23.8426588 L66.9703501,25.4757982 L63.7938042,25.4757982 C64.2604154,27.8806409 65.49873,29.7650326 67.5266944,31.1289733 L66.5755252,32.6364866 C64.6372938,31.1469199 63.3271929,29.226635 62.6811157,26.875632 C62.5195964,27.3781365 62.3580772,27.8268012 62.1965579,28.2575193 C61.3710148,30.1239644 60.0429674,31.5596914 58.2124154,32.5647003 L57.3330326,31.2007596 C59.0917982,30.1239644 60.2942196,28.7600237 60.9402967,27.0909911 C61.1197626,26.5884866 61.2633353,26.050089 61.3889614,25.4757982 L58.0867893,25.4757982 L58.0867893,23.8426588 L61.6940534,23.8426588 C61.8196795,22.873543 61.8914659,21.8505875 61.9273591,20.7378991 L60.1685935,20.7378991 Z" fill="#FFFFFF" fill-rule="nonzero" mask="url(#mask-3)"></path>
                <path d="M21.4657804,49.1048309 L18.3031929,49.1048309 L18.3031929,52.8247596 L18.9901484,52.8247596 L18.9901484,49.8047478 L20.7917864,49.8047478 L20.7917864,52.8506825 L21.4657804,52.8506825 L21.4657804,49.1048309 Z M19.8974481,53.3950623 C20.2733294,53.783905 20.5844036,54.1468249 20.8306706,54.5097448 L21.3232047,54.0172107 C20.9862077,53.5894837 20.5714421,53.1617567 20.078908,52.7340297 C20.1437151,52.3840712 20.1825994,51.9822671 20.1955608,51.5415786 L20.1955608,50.4139347 L19.5734125,50.4139347 L19.5734125,51.5415786 C19.5474896,52.2674184 19.4308368,52.8506825 19.223454,53.3043323 C18.9771869,53.7190979 18.5624214,54.0690564 17.9661958,54.3412463 L18.3550386,54.9504332 C19.0031098,54.6652819 19.4567596,54.2634777 19.741911,53.7450208 C19.7937567,53.6413294 19.8456024,53.5246766 19.8974481,53.3950623 Z M14.2462671,43.9202611 L14.2462671,44.5942552 L15.4127953,44.5942552 L15.4127953,45.9292819 L24.8227893,45.9292819 L24.8227893,45.2682493 L16.2812107,45.2682493 L16.2812107,44.5942552 L25.7041662,44.5942552 L25.7041662,43.9202611 L20.4677507,43.9202611 C20.3640593,43.5832641 20.2474065,43.2721899 20.1177923,43 L19.1845697,43.1555371 C19.3271454,43.3888427 19.4567596,43.6351098 19.5863739,43.9202611 L14.2462671,43.9202611 Z M15.7757151,46.5384688 L15.7757151,48.4697211 L24.1358338,48.4697211 L24.1358338,46.5384688 L15.7757151,46.5384688 Z M23.2285341,47.8605341 L16.6830148,47.8605341 L16.6830148,47.1476558 L23.2285341,47.1476558 L23.2285341,47.8605341 Z M15.5812938,51.3860415 L16.9422433,51.3860415 L16.9422433,52.3063027 L15.5164866,52.3063027 C15.5424095,52.0211513 15.5683323,51.7100772 15.5812938,51.3860415 Z M16.9422433,50.7768546 L15.5812938,50.7768546 L15.5812938,49.843632 L16.9422433,49.843632 L16.9422433,50.7768546 Z M15.4257567,52.9154896 L16.9422433,52.9154896 L16.9422433,53.8616736 C16.9422433,54.1727478 16.7996677,54.3412463 16.5274777,54.3412463 C16.3719407,54.3412463 16.2034421,54.3282849 16.0349436,54.302362 L16.229365,55.0022789 L16.7607834,55.0022789 C17.3699703,55.0022789 17.6810445,54.7041662 17.6810445,54.1209021 L17.6810445,49.1307537 L14.8295312,49.1307537 L14.8295312,51.399003 C14.8165697,52.6692226 14.5443798,53.7061365 14,54.5356677 L14.5832641,55.0670861 C14.9850682,54.4708605 15.2702196,53.7579822 15.4257567,52.9154896 Z M25.2245935,54.8597033 C25.483822,54.8597033 25.6523205,54.7560119 25.7560119,54.5486291 C25.8467418,54.3282849 25.9245104,53.783905 26.0022789,52.9025282 L25.4060534,52.6951454 L25.384181,53.0779979 C25.3525875,53.5838637 25.3209941,53.8859763 25.2894006,53.9912878 C25.2505163,54.1209021 25.1857092,54.1857092 25.1079407,54.1857092 L25.0301721,54.1857092 C24.8616736,54.1857092 24.783905,54.0820178 24.783905,53.8875964 L24.783905,49.1307537 L22.1527359,49.1307537 L22.1527359,51.2045816 C22.1527359,52.1507656 22.0879288,52.8377211 21.9583145,53.2524866 C21.8287003,53.6542908 21.5694718,54.0820178 21.1806291,54.5486291 L21.7638932,55.0541246 C22.217543,54.483822 22.5156558,53.9394421 22.6582315,53.4209852 C22.7878457,52.9025282 22.8526528,52.163727 22.8526528,51.2045816 L22.8526528,49.8695549 L24.0839881,49.8695549 L24.0839881,54.1079407 C24.0839881,54.6004748 24.3043323,54.8597033 24.7709436,54.8597033 L25.2245935,54.8597033 Z M23.3711098,51.0231217 L22.8785757,51.1916202 C23.1118813,51.6841543 23.3192641,52.254457 23.5136855,52.9025282 L24.0062196,52.682184 C23.8247596,52.0859585 23.6044154,51.5415786 23.3711098,51.0231217 Z M27.7103066,50.3750504 L27.7103066,51.2823501 L32.5578793,51.2823501 C31.8968467,52.6044154 30.1729773,53.5635608 27.3992324,54.1468249 L27.7880752,55.0152404 C30.7173571,54.3412463 32.5708408,53.2395252 33.3614876,51.7230386 C34.1132502,53.2654481 35.9148882,54.3542077 38.779363,54.9763561 L39.1552443,54.1079407 C36.549998,53.6154065 34.8261286,52.6692226 33.9706746,51.2823501 L38.8830544,51.2823501 L38.8830544,50.3750504 L33.7503304,50.3750504 C33.7892146,50.0380534 33.8151375,49.6751335 33.8151375,49.2862908 L32.9078378,49.2862908 C32.8948764,49.7010564 32.8689535,50.0639763 32.8300692,50.3750504 L27.7103066,50.3750504 Z M31.1710069,43.2073828 L31.1710069,46.3829318 C30.1470544,46.9273116 28.9416419,47.4068843 27.5547695,47.8216499 L27.9306508,48.6771039 C29.1619862,48.2752997 30.2377844,47.8216499 31.1710069,47.3291157 L31.1710069,49.1825994 L32.1301523,49.1825994 L32.1301523,43.2073828 L31.1710069,43.2073828 Z M28.3583778,43.7517626 L27.8528823,44.4905638 C28.5916835,44.8405223 29.3175232,45.3330564 30.0174402,45.9552047 L30.5229357,45.1775193 C29.8748645,44.6072166 29.1490247,44.1406053 28.3583778,43.7517626 Z M35.0075885,43.1555371 C34.5669001,44.1535668 33.7373689,44.9960593 32.5189951,45.6959763 L33.0892977,46.4477389 C33.7892146,46.0200119 34.3724787,45.5534006 34.8520514,45.0349436 L37.7035648,45.0349436 C37.3665678,45.747822 36.8221879,46.3699703 36.0963482,46.9013887 C35.7075054,46.4995846 35.3057013,46.1237033 34.8779743,45.7737448 L34.2299031,46.2533175 C34.6187458,46.5514303 35.0075885,46.9143501 35.4223541,47.3291157 C34.6965143,47.7179585 33.8410603,48.0419941 32.8300692,48.3012226 L33.2837191,49.1177923 C36.213001,48.314184 37.9887161,46.940273 38.6367873,44.9701365 L38.6367873,44.1794896 L35.5001227,44.1794896 C35.6815826,43.8943383 35.8241583,43.5832641 35.9537725,43.2721899 L35.0075885,43.1555371 Z M43.5462868,46.9143501 L43.5462868,48.9233709 C43.520364,51.4378872 43.0667141,53.2524866 42.1723759,54.393092 L42.8334085,54.9633947 C43.7407082,53.7968665 44.2591652,52.0211513 44.3628566,49.6362493 L45.9182275,49.6362493 L45.9056039,50.7672535 C45.886064,51.9747462 45.8490999,52.7901958 45.7886133,53.2136024 C45.6978833,53.7709436 45.4645776,54.056095 45.0757349,54.0820178 C44.8294679,54.0820178 44.5183937,54.056095 44.1554738,54.0301721 L44.4017409,54.8078576 L44.7314795,54.8373059 C44.8901273,54.850371 45.0394429,54.8597033 45.1794263,54.8597033 C45.8923046,54.8337804 46.3329931,54.4578991 46.5014916,53.7190979 C46.6570287,52.9932582 46.7607201,51.3601187 46.7866429,48.8326409 L44.375818,48.8326409 L44.375818,46.9143501 L46.8644115,46.9143501 L46.8644115,46.0588961 L42.2760673,46.0588961 L42.2760673,44.5294481 L47.2014085,44.5294481 L47.2014085,43.6739941 L41.4206133,43.6739941 L41.4206133,48.9492938 C41.3946904,51.2953116 41.1225005,53.1228724 40.6040435,54.4319763 L41.2650762,55.0282018 C41.900186,53.4987537 42.237183,51.4767715 42.2760673,48.9492938 L42.2760673,46.9143501 L43.5462868,46.9143501 Z M48.8086251,43.1944214 L48.8086251,45.9292819 L47.3310227,45.9292819 L47.3310227,46.7847359 L48.8086251,46.7847359 C48.743818,50.2843205 48.0698239,52.8377211 46.7866429,54.4578991 L47.4476756,55.0411632 C48.8734322,53.2784095 49.6251949,50.5176261 49.7029634,46.7847359 L51.1676044,46.7847359 L51.1629281,47.7042866 C51.1428144,50.7285165 51.0806188,52.5476732 50.9861444,53.1617567 C50.882453,53.7709436 50.5324946,54.0820178 49.9492305,54.0820178 C49.6381563,54.0820178 49.2881978,54.056095 48.8863937,54.0301721 L49.080815,54.820819 L49.6819011,54.8499822 C49.8487794,54.8564629 49.981634,54.8597033 50.0788447,54.8597033 C51.1157587,54.8597033 51.6990227,54.3801306 51.828637,53.4339466 L51.8448999,53.3062921 C51.964729,52.2849859 52.0360198,49.8259824 52.0360198,45.9292819 L49.7159248,45.9292819 L49.7159248,43.1944214 L48.8086251,43.1944214 Z M56.5437151,46.849543 L56.5437151,47.6013056 L59.4859585,47.6013056 L59.4859585,49.4677507 L54.85873,49.4677507 L54.85873,50.3361662 L59.4859585,50.3361662 L59.4859585,53.7968665 L57.9953947,53.7968665 C57.6583976,52.7729139 57.2954777,51.8915371 56.8936736,51.1656973 L56.051181,51.4767715 C56.4659466,52.2026113 56.815905,52.9673353 57.088095,53.7968665 L54.4050801,53.7968665 L54.4050801,54.6912047 L65.4870979,54.6912047 L65.4870979,53.7968665 L62.8040831,53.7968665 C63.1929258,53.0969496 63.5558457,52.2803798 63.8798813,51.3730801 L63.0244273,51.0749674 C62.6874303,52.0470742 62.2985875,52.9543739 61.8578991,53.7968665 L60.419181,53.7968665 L60.419181,50.3361662 L65.0334481,50.3361662 L65.0334481,49.4677507 L60.419181,49.4677507 L60.419181,47.6013056 L63.3614243,47.6013056 L63.3614243,46.8884273 C63.9576499,47.2383858 64.5927596,47.5624214 65.2797151,47.8475727 L65.8111335,47.0698872 C63.4003086,46.0588961 61.5727478,44.7886766 60.328451,43.2462671 L59.5766884,43.2462671 C58.1509318,44.8145994 56.3104095,46.0977804 54.0551217,47.1087715 L54.5995015,47.886457 C55.2734955,47.5753828 55.9215668,47.2254243 56.5437151,46.849543 Z M63.1410801,46.7588131 L56.6862908,46.7588131 C57.8917033,46.0200119 58.9804629,45.138635 59.9525697,44.1276439 C60.8080237,45.1256736 61.8708605,46.0070504 63.1410801,46.7588131 Z M69.4244906,44.4776024 L69.618912,51.2434659 L70.4225203,51.2434659 L70.6299031,44.4776024 L69.4244906,44.4776024 Z M70.0207161,52.1896499 C70.2410603,52.1896499 70.4354817,52.254457 70.5910188,52.4099941 C70.7335945,52.5525697 70.811363,52.7340297 70.811363,52.9543739 C70.811363,53.1876795 70.7335945,53.3691395 70.5910188,53.5117151 C70.4354817,53.6542908 70.2410603,53.7320593 70.0207161,53.7320593 C69.8003719,53.7320593 69.618912,53.6542908 69.4633749,53.5117151 C69.3078378,53.356178 69.2430307,53.1747181 69.2430307,52.9543739 C69.2430307,52.7340297 69.3078378,52.5525697 69.4633749,52.4099941 C69.618912,52.254457 69.8003719,52.1896499 70.0207161,52.1896499 Z" id="赢奖励金！" fill="#FFFFFF" fill-rule="nonzero" opacity="0.9" mask="url(#mask-3)"></path>
                <g id="涨跌" mask="url(#mask-3)">
                    <g transform="translate(80.756677, 11.964392)">
                        <path d="M11.4658754,22.9317507 L60.3204748,22.9317507 L60.3204748,22.9317507 L41.4589004,45.1575876 C41.0788969,45.6053707 40.5212859,45.8635015 39.9339934,45.8635015 L11.4658754,45.8635015 C5.13344726,45.8635015 1.8197649e-12,40.7300542 1.8189894e-12,34.3976261 C1.8182139e-12,28.065198 5.13344726,22.9317507 11.4658754,22.9317507 Z" id="矩形" fill="url(#linearGradient-7)" fill-rule="evenodd" opacity="0.25" transform="translate(30.160237, 34.397626) scale(-1, -1) translate(-30.160237, -34.397626) "></path>
                        <path d="M21.9347181,22.9317507 L66.8011869,22.9317507 L66.8011869,22.9317507 L47.9396125,45.1575876 C47.559609,45.6053707 47.001998,45.8635015 46.4147056,45.8635015 L21.9347181,45.8635015 C15.60229,45.8635015 10.4688427,40.7300542 10.4688427,34.3976261 C10.4688427,28.065198 15.60229,22.9317507 21.9347181,22.9317507 Z" id="矩形" fill="url(#linearGradient-8)" fill-rule="evenodd" opacity="0.5" transform="translate(38.635015, 34.397626) scale(-1, -1) translate(-38.635015, -34.397626) "></path>
                        <path d="M32.4035608,22.9317507 L69.2937685,22.9317507 L69.2937685,22.9317507 L50.4321941,45.1575876 C50.0521906,45.6053707 49.4945796,45.8635015 48.9072872,45.8635015 L32.4035608,45.8635015 C26.0711327,45.8635015 20.9376855,40.7300542 20.9376855,34.3976261 C20.9376855,28.065198 26.0711327,22.9317507 32.4035608,22.9317507 Z" id="矩形" fill="url(#linearGradient-9)" fill-rule="evenodd" transform="translate(45.115727, 34.397626) scale(-1, -1) translate(-45.115727, -34.397626) "></path>
                        <path d="M23.9287834,0 L81.7566766,0 L81.7566766,0 L60.883211,22.2985379 C60.5050622,22.7025035 59.9764502,22.9317507 59.4231106,22.9317507 L23.9287834,22.9317507 C17.5963553,22.9317507 12.462908,17.7983035 12.462908,11.4658754 C12.462908,5.13344726 17.5963553,4.71596185e-15 23.9287834,0 Z" id="矩形" fill="url(#linearGradient-10)" fill-rule="evenodd" opacity="0.248256138"></path>
                        <path d="M22.9317507,0 L70.2908012,0 L70.2908012,0 L49.4173356,22.2985379 C49.0391869,22.7025035 48.5105749,22.9317507 47.9572353,22.9317507 L22.9317507,22.9317507 C16.5993226,22.9317507 11.4658754,17.7983035 11.4658754,11.4658754 C11.4658754,5.13344726 16.5993226,1.16324817e-15 22.9317507,0 Z" id="矩形" fill="url(#linearGradient-11)" fill-rule="evenodd" opacity="0.504278274"></path>
                        <path d="M21.9347181,0 L58.8249258,0 L58.8249258,0 L37.9514602,22.2985379 C37.5733115,22.7025035 37.0446995,22.9317507 36.4913599,22.9317507 L21.9347181,22.9317507 C15.60229,22.9317507 10.4688427,17.7983035 10.4688427,11.4658754 C10.4688427,5.13344726 15.60229,1.16324817e-15 21.9347181,0 Z" id="矩形" fill="url(#linearGradient-12)" fill-rule="evenodd"></path>
                        <g id="VS" fill="none" fill-rule="nonzero">
                            <use fill="black" fill-opacity="1" filter="url(#filter-14)" xlink:href="#path-13"></use>
                            <use fill="#FFFFFF" xlink:href="#path-13"></use>
                        </g>
                    </g>
                </g>
            </g>
        </g>
    </g>
</svg>