<?xml version="1.0" encoding="UTF-8"?>
<svg width="168px" height="70px" viewBox="0 0 168 70" version="1.1" xmlns="http://www.w3.org/2000/svg" xmlns:xlink="http://www.w3.org/1999/xlink">
    <!-- Generator: Sketch 59.1 (86144) - https://sketch.com -->
    <title>充值</title>
    <desc>Created with Sketch.</desc>
    <defs>
        <linearGradient x1="100%" y1="57.1093176%" x2="0%" y2="42.6033754%" id="linearGradient-1">
            <stop stop-color="#2D1D65" offset="0%"></stop>
            <stop stop-color="#4B46A9" offset="100%"></stop>
        </linearGradient>
        <rect id="path-2" x="0.973293769" y="0.326409496" width="168" height="70" rx="6"></rect>
        <path d="M28.8247202,0 L28.0804553,8.28182116 C16.0531035,12.8695038 7.75928218,18.2999559 3.1989912,24.5731777 C-3.64144527,33.9830103 2.38116985,43.4424536 3.92493273,43.4424536 C5.46869562,43.4424536 7.50779079,44.0878866 7.8109487,42.8045257 C8.11410662,41.5211648 5.30426713,41.1327224 5.30426713,39.8627795 C5.30426713,39.016151 9.04580371,33.919617 16.5288769,24.5731777 L33.1062787,44.1670371 L50.0474415,38.1489606 L51.0890654,18.5814886 L34.2315351,8.96433595 C33.6867613,8.85266628 33.4143744,8.62516135 33.4143744,8.28182116 C33.4143744,7.93848097 33.4143744,7.44127202 33.4143744,6.79019433 L28.8247202,0 Z" id="path-4"></path>
        <linearGradient x1="5.85948069%" y1="27.9523108%" x2="94.6701567%" y2="71.279247%" id="linearGradient-6">
            <stop stop-color="#F7A61F" offset="0%"></stop>
            <stop stop-color="#D67E1F" offset="100%"></stop>
        </linearGradient>
        <linearGradient x1="45.9970568%" y1="89.7824676%" x2="57.3699597%" y2="22.723897%" id="linearGradient-7">
            <stop stop-color="#78CBFC" offset="0%"></stop>
            <stop stop-color="#4A7CE3" stop-opacity="0" offset="100%"></stop>
        </linearGradient>
        <linearGradient x1="50%" y1="-1.80049628%" x2="47.1413855%" y2="71.7524427%" id="linearGradient-8">
            <stop stop-color="#78CBFC" offset="0%"></stop>
            <stop stop-color="#4A7CE3" stop-opacity="0" offset="100%"></stop>
        </linearGradient>
        <linearGradient x1="50%" y1="3.66795179%" x2="50%" y2="90.9484936%" id="linearGradient-9">
            <stop stop-color="#78CBFC" offset="0%"></stop>
            <stop stop-color="#4A7CE3" stop-opacity="0" offset="100%"></stop>
        </linearGradient>
        <linearGradient x1="50%" y1="3.66795179%" x2="50%" y2="90.9484936%" id="linearGradient-10">
            <stop stop-color="#78CBFC" offset="0%"></stop>
            <stop stop-color="#4A7CE3" stop-opacity="0" offset="100%"></stop>
        </linearGradient>
    </defs>
    <g id="页面-1" stroke="none" stroke-width="1" fill="none" fill-rule="evenodd">
        <g id="画板" transform="translate(-1392.000000, -2287.000000)">
            <g id="编组-14" transform="translate(1391.026706, 2286.673591)">
                <mask id="mask-3" fill="white">
                    <use xlink:href="#path-2"></use>
                </mask>
                <use id="蒙版" fill="url(#linearGradient-1)" xlink:href="#path-2"></use>
                <g id="编组-31" mask="url(#mask-3)">
                    <g transform="translate(110.973294, 2.320475)">
                        <g id="yifu" stroke-width="1" fill="none" transform="translate(0.000000, 8.031788)">
                            <mask id="mask-5" fill="white">
                                <use xlink:href="#path-4"></use>
                            </mask>
                            <use id="蒙版" fill="#F7C2AA" xlink:href="#path-4"></use>
                            <path d="M12.8914432,12.2357587 L18.5577889,19.7798971 L18.5577889,59.7866301 L29.2377083,59.7866301 L30.4607633,45.6868674 L32.9842066,45.1490473 L31.9457129,59.7866301 L41.4872944,59.7866301 L42.8755551,43.2082536 L46.6880543,14.3854106 L35.5794189,7.84971517 C34.3901968,10.3500706 32.7872353,11.6002483 30.7705345,11.6002483 C27.7454834,11.6002483 26.3881936,9.21996708 25.9264111,7.57230432 C25.6185561,6.47386247 21.2735668,8.02834725 12.8914432,12.2357587 Z" fill="#FFFFFF" mask="url(#mask-5)"></path>
                            <path d="M12.3042438,13.8905 L18.1213323,21.4346385 L18.1213323,61.4413715 L29.0853716,61.4413715 L30.3409638,47.3416088 L32.9315387,46.8037887 L31.8654177,61.4413715 L41.6608356,61.4413715 L43.0860284,44.862995 L46.9999522,16.040152 L35.5957919,9.50445656 C34.3749326,12.004812 32.7293273,13.2549897 30.6589759,13.2549897 C27.5534487,13.2549897 26.1600507,10.8747085 25.6859833,9.2270457 C25.3699384,8.12860385 20.9093586,9.68308863 12.3042438,13.8905 Z" fill="#78CBFC" mask="url(#mask-5)"></path>
                        </g>
                        <path d="M20.5834695,67.4730392 C23.9185404,65.3323727 25.747771,65.3323727 26.0711611,67.4730392 C26.3945512,69.6137058 25.7121603,73.7615304 24.0239882,79.916513 L24.0239882,79.916513 L20.5834695,79.916513 Z M40.2107344,65.8675393 L39.5942798,78.6065942 C36.0455449,78.8101916 34.2711774,78.3870161 34.2711774,77.3370677 L34.2711774,77.3370677 L34.2711774,66.9486942 L40.2107344,65.8675393 Z" id="形状结合" fill="#E7AF96"></path>
                        <path d="M18.1213323,69.4731595 L29.0853716,69.4731595 L30.3409638,55.3733968 L32.9315387,54.8355767 L31.8654177,69.4731595 L41.6608356,69.4731595 L43.0860284,52.8947829 C27.9401119,52.278038 19.9027882,52.278038 18.9740574,52.8947829 C18.0453266,53.5115278 17.7610849,59.0376533 18.1213323,69.4731595 Z" id="yifu" fill="#175ED0"></path>
                        <path d="M5.70819309,29.6436356 L50.2055617,23.3899383 C51.841423,23.160033 53.3539256,24.2997854 53.5838309,25.9356467 L57.1222141,51.1125512 C57.3521194,52.7484124 56.2123669,54.260915 54.5765057,54.4908203 L10.079137,60.7445176 C8.44327578,60.9744229 6.93077317,59.8346705 6.70086787,58.1988092 L3.1624847,33.0219048 C2.93257939,31.3860435 4.07233186,29.8735409 5.70819309,29.6436356 Z" id="ka-" fill="url(#linearGradient-6)"></path>
                        <path d="M12.2283088,51.4234659 L30.2168276,51.4234659 C31.1199899,51.4234659 31.8521475,52.1556235 31.8521475,53.0587858 C31.8521475,53.961948 31.1199899,54.6941056 30.2168276,54.6941056 L12.2283088,54.6941056 C11.3251466,54.6941056 10.5929889,53.961948 10.5929889,53.0587858 C10.5929889,52.1556235 11.3251466,51.4234659 12.2283088,51.4234659 Z" id="ka-" fill="#FFFFFF" opacity="0.459588914" transform="translate(21.222568, 53.058786) rotate(-8.000000) translate(-21.222568, -53.058786) "></path>
                        <path d="M34.4477097,49.5647934 C35.3508719,49.5647934 36.0830295,50.2969511 36.0830295,51.2001133 C36.0830295,52.1032756 35.3508719,52.8354332 34.4477097,52.8354332 C33.5445474,52.8354332 32.8123898,52.1032756 32.8123898,51.2001133 C32.8123898,50.2969511 33.5445474,49.5647934 34.4477097,49.5647934 Z" id="ka-" fill="#FFFFFF" opacity="0.459588914" transform="translate(34.447710, 51.200113) rotate(-8.000000) translate(-34.447710, -51.200113) "></path>
                        <path d="M3.09263537,32.9095904 C3.54542225,32.2867283 2.38116985,51.4742416 3.92493273,51.4742416 C5.46869562,51.4742416 7.50779079,52.1196746 7.8109487,50.8363137 C8.11410662,49.5529527 5.30426713,49.1645103 5.30426713,47.8945675 C5.30426713,46.6246247 2.6398485,33.5324525 3.09263537,32.9095904 Z" id="手" fill="#F7C2AA"></path>
                        <path d="M29.4978553,11.8832023 C30.5532332,13.6681565 31.4943503,14.6525591 32.3212067,14.8364102 C32.6739117,14.9148339 33.4028824,15.0061463 33.4036287,14.9851728 C33.4117053,14.7581938 33.3856065,14.6128687 33.4036287,14.1728975 C33.4090131,14.0414494 33.4090131,13.8075 33.4036287,13.4710492 L29.4978553,11.8832023 Z" id="路径-63" fill="#C1877F"></path>
                        <path d="M28.9731755,10.4664343 C27.6010585,10.1546739 27.1938523,9.46459148 27.751557,8.396187 C28.3092618,7.32778252 29.0259845,7.59103776 29.9017251,9.18595272 L29.9017251,5.19713844 L35.8730692,4.95922608 C35.4074635,6.47496339 35.2668549,7.55581459 35.4512434,8.20177969 C35.635632,8.84774478 35.8578496,9.53690614 36.1178964,10.2692638 L35.2145964,10.6764925 L35.2145964,11.3107078 C33.9818763,11.3092957 33.1500096,11.1682304 32.7189964,10.8875119 C32.0724765,10.4664343 33.2532252,12.6744207 34.8339168,12.8993946 C35.7641688,13.1089998 34.3351221,14.6912977 32.7189964,14.3229428 C31.6048541,14.0654938 30.6657637,13.4083251 29.9017251,12.3514366 L28.9731755,10.4664343 Z" id="lian" fill="#F7C2AA"></path>
                        <path d="M27.6830453,8.53790146 C27.4121527,5.87422225 28.4756157,3.97852644 30.8734343,2.85081401 C31.811238,2.64721716 31.811238,1.72039563 30.8734343,0.070349418 C34.4884466,-0.286035073 36.4803504,0.711641805 36.8491458,3.06338005 C37.2179412,5.4151183 36.7240565,6.76101694 35.3674915,7.10107597 L35.3674915,6.08966832 C34.1732904,6.28820598 33.4272581,6.19767287 33.1293947,5.81806898 C33.1649422,6.44258248 31.5814731,7.1599068 30.2756953,6.08966832 C30.4860797,7.57696657 30.5687946,8.60235932 29.8695162,9.35178269 C29.7660141,8.93585829 29.5685172,8.16469349 28.7288251,8.03178798 C28.3561973,7.97280886 28.007604,8.14151335 27.6830453,8.53790146 Z" id="toufa" fill="#151515"></path>
                        <circle id="椭圆形" fill="#BD4603" cx="39.0665671" cy="33.5549072" r="4.1797427"></circle>
                        <circle id="椭圆形" fill="#FFD72F" cx="44.1962513" cy="32.6049657" r="4.1797427"></circle>
                        <path d="M41.0372434,29.8679653 C42.3520098,30.5721819 43.2463098,31.959107 43.2463098,33.5549072 C43.2463098,34.6009192 42.8620724,35.5571878 42.2270421,36.2902685 C40.9108086,35.587691 40.0165086,34.2007658 40.0165086,32.6049657 C40.0165086,31.625641 40.3533144,30.7249815 40.9174119,30.0125015 Z" id="形状结合" fill="#FF833D"></path>
                    </g>
                </g>
                <g id="编组-13" mask="url(#mask-3)">
                    <g transform="translate(-39.000000, -56.000000)" id="矩形">
                        <path d="M139.059302,35.7537542 C147.043668,35.7537542 153.516276,42.2263616 153.516276,50.2107275 L153.516276,108.537137 C153.516276,116.521503 147.043668,122.99411 139.059302,122.99411 C131.074936,122.99411 124.602329,116.521503 124.602329,108.537137 L124.602329,50.2107275 C124.602329,42.2263616 131.074936,35.7537542 139.059302,35.7537542 Z" fill="url(#linearGradient-7)" opacity="0.268694196" transform="translate(139.059302, 79.373932) scale(-1, -1) rotate(-315.000000) translate(-139.059302, -79.373932) "></path>
                        <path d="M131.198813,26.4154303 C139.183179,26.4154303 145.655786,32.8880377 145.655786,40.8724036 L145.655786,81.7507418 C145.655786,89.7351077 139.183179,96.2077151 131.198813,96.2077151 C123.214447,96.2077151 116.74184,89.7351077 116.74184,81.7507418 L116.74184,40.8724036 C116.74184,32.8880377 123.214447,26.4154303 131.198813,26.4154303 Z" fill="url(#linearGradient-8)" opacity="0.13264974" transform="translate(131.198813, 61.311573) scale(-1, -1) rotate(-315.000000) translate(-131.198813, -61.311573) "></path>
                        <path d="M65.9838953,66.8859725 C75.2072145,66.8859725 82.6841921,74.36295 82.6841921,83.5862692 L82.6841921,119.977961 C82.6841921,129.20128 75.2072145,136.678257 65.9838953,136.678257 C56.7605761,136.678257 49.2835986,129.20128 49.2835986,119.977961 L49.2835986,83.5862692 C49.2835986,74.36295 56.7605761,66.8859725 65.9838953,66.8859725 Z" fill="url(#linearGradient-9)" opacity="0.268694196" transform="translate(65.983895, 101.782115) scale(-1, -1) rotate(-315.000000) translate(-65.983895, -101.782115) "></path>
                        <path d="M71.6261128,93.2166172 C80.849432,93.2166172 88.3264095,100.693595 88.3264095,109.916914 L88.3264095,146.308605 C88.3264095,155.531925 80.849432,163.008902 71.6261128,163.008902 C62.4027936,163.008902 54.925816,155.531925 54.925816,146.308605 L54.925816,109.916914 C54.925816,100.693595 62.4027936,93.2166172 71.6261128,93.2166172 Z" fill="url(#linearGradient-9)" opacity="0.268694196" transform="translate(71.626113, 128.112760) scale(-1, -1) rotate(-315.000000) translate(-71.626113, -128.112760) "></path>
                        <path d="M46.7002967,-2 C55.9236159,-2 63.4005935,5.47697753 63.4005935,14.7002967 L63.4005935,79.0089021 C63.4005935,88.2322213 55.9236159,95.7091988 46.7002967,95.7091988 C37.4769775,95.7091988 30,88.2322213 30,79.0089021 L30,14.7002967 C30,5.47697753 37.4769775,-2 46.7002967,-2 Z" fill="url(#linearGradient-10)" opacity="0.1" transform="translate(46.700297, 46.854599) scale(-1, -1) rotate(-315.000000) translate(-46.700297, -46.854599) "></path>
                    </g>
                </g>
                <path d="M24.013365,16.3264095 L22.1828131,16.6135549 C22.5237982,17.1698991 22.8288902,17.7800831 23.1160356,18.4261602 L16.3860653,18.4261602 L16.3860653,20.0234065 L21.2495905,20.0234065 C19.9673378,21.8774747 18.9193083,23.0456033 18.0893487,23.5439458 L18.0012582,23.5947774 C17.9115252,23.6486172 17.7858991,23.702457 17.6243798,23.7383501 L18.0192047,25.2638101 C21.7162018,25.0663976 25.1260534,24.7971988 28.2846528,24.4741602 C28.6974243,25.0843442 29.0743027,25.6945282 29.4332344,26.3047122 L30.8510148,25.3176499 C30.0434184,23.9896024 28.8948368,22.4461958 27.3873234,20.6515371 L26.059276,21.4770801 C26.4899941,22.0154777 26.9027656,22.5538754 27.2975905,23.092273 C24.9645341,23.3614718 22.5955846,23.5588843 20.226635,23.702457 C21.052178,22.9128071 21.967454,21.6744926 23.0083561,20.0234065 L31.2817329,20.0234065 L31.2817329,18.4261602 L24.838908,18.4261602 C24.5697092,17.654457 24.3005104,16.9545401 24.013365,16.3264095 Z M20.4958338,25.8201543 C20.3881543,27.5789199 19.9933294,28.835181 19.3472522,29.5889377 C18.6652819,30.3785875 17.5525935,31.0605579 15.9732938,31.6348487 L17.0321424,32.9808427 C18.8268012,32.2270861 20.1189555,31.3656499 20.8906588,30.3606409 C21.5905757,29.4094718 22.0033472,27.9019585 22.1469199,25.8201543 L20.4958338,25.8201543 Z M29.4691276,32.7116439 C30.1152047,32.6757507 30.6177092,32.5142315 30.9766409,32.1911929 C31.2996795,31.8681543 31.5688783,30.7734125 31.7483442,28.9069674 L30.1869911,28.4044629 L30.1650174,28.7246424 C30.0720905,29.960825 29.9191728,30.6629719 29.7203798,30.8451988 C29.5050208,31.0246647 29.2717151,31.1143976 29.0204629,31.1143976 L27.0642849,31.1143976 C26.5258872,31.1143976 26.274635,30.8631454 26.274635,30.3606409 L26.274635,25.6047953 L24.5876558,25.6047953 L24.5876558,30.6477864 C24.5876558,32.011727 25.2516795,32.7116439 26.5976736,32.7116439 L29.4691276,32.7116439 Z M44.1633947,16.3443561 C44.1275015,16.8827537 44.0736617,17.4390979 44.0377685,17.9954421 L39.4434421,17.9954421 L39.4434421,19.5388487 L43.8583027,19.5388487 C43.8224095,19.9336736 43.7685697,20.3464451 43.6967834,20.7592166 L40.448451,20.7592166 L40.448451,30.9528783 L38.6717389,30.9528783 L38.6717389,32.4962849 L50.5344332,32.4962849 L50.5344332,30.9528783 L48.9012938,30.9528783 L48.9012938,20.7592166 L45.365816,20.7592166 L45.4315723,20.2831295 C45.4655991,20.0427888 45.5022101,19.7972795 45.5452819,19.5388487 L50.0139822,19.5388487 L50.0139822,17.9954421 L45.7247478,17.9954421 C45.7606409,17.5288309 45.8144807,17.0622196 45.8503739,16.5776617 L44.1633947,16.3443561 Z M42.0815905,30.9528783 L42.0815905,29.750457 L47.2681543,29.750457 L47.2681543,30.9528783 L42.0815905,30.9528783 Z M42.0815905,28.4044629 L42.0815905,27.2558813 L47.2681543,27.2558813 L47.2681543,28.4044629 L42.0815905,28.4044629 Z M42.0815905,25.8919407 L42.0815905,24.7613056 L47.2681543,24.7613056 L47.2681543,25.8919407 L42.0815905,25.8919407 Z M42.0815905,23.4153116 L42.0815905,22.2846766 L47.2681543,22.2846766 L47.2681543,23.4153116 L42.0815905,23.4153116 Z M36.3207359,23.1640593 C35.7823383,23.917816 35.2080475,24.6536261 34.5978635,25.353543 L34.0415193,23.5409377 C35.7105519,21.4950267 36.9309199,19.090184 37.7026231,16.3623027 L39.2460297,17.0801662 C38.9050445,18.2287478 38.4743264,19.3234896 37.971822,20.3643917 L37.971822,33.0167359 L36.3207359,33.0167359 L36.3207359,23.1640593 Z" id="充值" fill="#FFFFFF" fill-rule="nonzero" mask="url(#mask-3)"></path>
                <path d="M20.6912522,45.3095074 L20.6912522,46.1779228 L22.9983858,46.1779228 L22.9983858,47.3055668 C22.9983858,47.9795608 22.9465401,48.627632 22.8558101,49.2238576 L20.1598338,49.2238576 L20.1598338,50.1311573 L22.6743501,50.1311573 C22.181816,52.0883323 21.0930564,53.5011276 19.4339941,54.3825045 L20.0042967,55.1472285 C21.7281662,54.1621602 22.8817329,52.6456736 23.464997,50.5718457 C24.2815668,52.412368 25.5777092,53.9288546 27.3404629,55.1342671 L27.9755727,54.4084273 C26.2257804,53.3196677 24.9425994,51.893911 24.1389911,50.1311573 L27.6774599,50.1311573 L27.6774599,49.2238576 L26.6664688,49.2238576 L26.6664688,45.3095074 L23.9056855,45.3095074 L23.9056855,43.3523323 L22.9983858,43.3523323 L22.9983858,45.3095074 L20.6912522,45.3095074 Z M23.9056855,46.1779228 L25.7591691,46.1779228 L25.7591691,49.2238576 L23.7501484,49.2238576 C23.8538398,48.5628249 23.9056855,47.862908 23.9056855,47.1111454 L23.9056855,46.1779228 Z M16.4658279,45.8279644 C16.4269436,47.0722611 16.2584451,48.2517507 15.9732938,49.3664332 L16.7380178,49.5867774 C17.0102077,48.4202493 17.1657448,47.1759525 17.2046291,45.8798101 L16.4658279,45.8279644 Z M19.7321068,45.5428131 L19.0321899,45.7631573 C19.3951098,46.670457 19.6932226,47.6036795 19.9265282,48.5757864 L20.6912522,48.3943264 C20.4061009,47.3185282 20.0950267,46.3723442 19.7321068,45.5428131 Z M17.8527003,43.3652938 L17.8527003,55.1601899 L18.7729614,55.1601899 L18.7729614,43.3652938 L17.8527003,43.3652938 Z M40.1564313,50.5977685 L40.1564313,48.7054006 L40.9989238,48.7054006 L40.9989238,47.9017923 L40.1564313,47.9017923 L40.1564313,46.0223858 L37.6030307,46.0223858 L37.6030307,45.0632404 L40.882271,45.0632404 L40.882271,44.2466706 L37.6030307,44.2466706 L37.6030307,43.3393709 L36.7086924,43.3393709 L36.7086924,44.2466706 L33.7016419,44.2466706 L33.7016419,45.0632404 L36.7086924,45.0632404 L36.7086924,46.0223858 L34.2978675,46.0223858 L34.2978675,46.8259941 L36.7086924,46.8259941 L36.7086924,47.9017923 L33.7794105,47.9017923 L33.7794105,48.7054006 L36.7086924,48.7054006 L36.7086924,49.7941602 L34.2071375,49.7941602 L34.2071375,50.5977685 L36.7086924,50.5977685 L36.7086924,53.8770089 L36.4915885,53.8057211 C36.423541,53.7830386 36.3587339,53.7603561 36.2939268,53.7344332 C35.8013927,53.514089 35.3607043,53.0215549 34.9718615,52.2438694 C35.0366686,51.9457567 35.1014758,51.6217211 35.1533215,51.2588012 L34.284906,51.1291869 C34.0775232,52.6456736 33.5849891,53.8381246 32.8073037,54.6935786 L33.5590663,55.2120356 C34.0256775,54.6935786 34.4145203,54.0195846 34.712633,53.1641306 C35.0755529,53.8251632 35.4903185,54.2788131 35.9439683,54.5121187 C36.514271,54.79727 37.6030307,54.9528071 39.2102473,54.9657685 L39.9074434,54.9814129 C40.2318191,54.9874591 40.5767517,54.9916914 40.9470781,54.9916914 L41.2192681,54.0455074 L40.8629844,54.0671789 C40.3689986,54.0937239 39.7986959,54.1103145 39.1454402,54.1103145 C38.5621761,54.1103145 38.0437191,54.0843917 37.6030307,54.032546 L37.6030307,52.5808665 L40.454544,52.5808665 L40.454544,51.7642967 L37.6030307,51.7642967 L37.6030307,50.5977685 L40.1564313,50.5977685 Z M37.6030307,46.8259941 L39.3139387,46.8259941 L39.3139387,47.9017923 L37.6030307,47.9017923 L37.6030307,46.8259941 Z M39.3139387,48.7054006 L39.3139387,49.7941602 L37.6030307,49.7941602 L37.6030307,48.7054006 L39.3139387,48.7054006 Z M30.9797428,55.0694599 C31.7055826,55.0694599 32.0685025,54.7065401 32.0685025,53.9807003 L32.0685025,50.0793116 C32.4832681,49.8719288 32.9109951,49.6515846 33.3387221,49.4182789 L33.3387221,48.4850564 C32.9239565,48.718362 32.5091909,48.9516677 32.0685025,49.1590504 L32.0685025,46.6056499 L33.4553749,46.6056499 L33.4553749,45.7113116 L32.0685025,45.7113116 L32.0685025,43.3523323 L31.1352799,43.3523323 L31.1352799,45.7113116 L29.5410247,45.7113116 L29.5410247,46.6056499 L31.1352799,46.6056499 L31.1352799,49.573816 C30.5520158,49.8071217 29.9557903,50.001543 29.3595648,50.1570801 L29.5928704,51.0903027 C30.1113274,50.9088427 30.6168229,50.7144214 31.1352799,50.5070386 L31.1352799,53.7473947 C31.1352799,54.0714303 30.9667814,54.2399288 30.6557072,54.2399288 C30.3316716,54.2399288 29.9946746,54.2140059 29.6447161,54.1751217 L29.8391375,55.0694599 L30.9797428,55.0694599 Z M48.0340969,46.3334599 C47.2045658,49.7811988 45.4029278,52.4253294 42.629183,54.2399288 L43.1865242,55.0305757 C45.9084233,53.267822 47.6970999,50.7273828 48.5525539,47.4222196 L48.631152,47.6213071 C48.6712806,47.7270723 48.7132756,47.8421697 48.7599367,47.9665994 C50.0949634,51.3884154 51.8058714,53.7473947 53.9056222,55.0176142 L54.4888863,54.2658516 C52.4409812,52.9826706 50.8208032,50.7921899 49.6024293,47.6944095 C48.798821,45.5946588 47.8267141,44.1300178 46.6731474,43.3264095 L45.8954619,43.8189436 C46.7249931,44.4151691 47.4378714,45.2447003 48.0340969,46.3334599 Z M58.5299703,47.0333769 L58.5299703,47.7851395 L61.4722136,47.7851395 L61.4722136,49.6515846 L56.8449852,49.6515846 L56.8449852,50.52 L61.4722136,50.52 L61.4722136,53.9807003 L59.9816499,53.9807003 C59.6446528,52.9567478 59.2817329,52.0753709 58.8799288,51.3495312 L58.0374362,51.6606053 C58.4522018,52.3864451 58.8021602,53.1511691 59.0743501,53.9807003 L56.3913353,53.9807003 L56.3913353,54.8750386 L67.4733531,54.8750386 L67.4733531,53.9807003 L64.7903383,53.9807003 C65.179181,53.2807834 65.5421009,52.4642136 65.8661365,51.5569139 L65.0106825,51.2588012 C64.6736855,52.230908 64.2848427,53.1382077 63.8441543,53.9807003 L62.4054362,53.9807003 L62.4054362,50.52 L67.0197033,50.52 L67.0197033,49.6515846 L62.4054362,49.6515846 L62.4054362,47.7851395 L65.3476795,47.7851395 L65.3476795,47.0722611 C65.943905,47.4222196 66.5790148,47.7462552 67.2659703,48.0314065 L67.7973887,47.2537211 C65.3865638,46.24273 63.559003,44.9725104 62.3147062,43.4301009 L61.5629436,43.4301009 C60.1371869,44.9984332 58.2966647,46.2816142 56.0413769,47.2926053 L56.5857567,48.0702908 C57.2597507,47.7592166 57.907822,47.4092582 58.5299703,47.0333769 Z M65.1273353,46.9426469 L58.672546,46.9426469 C59.8779585,46.2038457 60.9667181,45.3224688 61.9388249,44.3114777 C62.7942789,45.3095074 63.8571157,46.1908843 65.1273353,46.9426469 Z" id="快捷入金" fill="#FFFFFF" fill-rule="nonzero" opacity="0.9" mask="url(#mask-3)"></path>
            </g>
        </g>
    </g>
</svg>