<?xml version="1.0" encoding="UTF-8"?>
<svg width="167px" height="69px" viewBox="0 0 167 69" version="1.1" xmlns="http://www.w3.org/2000/svg" xmlns:xlink="http://www.w3.org/1999/xlink">
    <!-- Generator: Sketch 61.1 (89650) - https://sketch.com -->
    <title>本周运程</title>
    <desc>Created with Sketch.</desc>
    <defs>
        <linearGradient x1="100%" y1="51.3159847%" x2="0%" y2="50%" id="linearGradient-1">
            <stop stop-color="#1E154C" offset="0%"></stop>
            <stop stop-color="#3D1959" offset="100%"></stop>
        </linearGradient>
        <rect id="path-2" x="0" y="0" width="167" height="68.7940299" rx="5"></rect>
        <linearGradient x1="94.7799028%" y1="58.5902367%" x2="50%" y2="43.9954565%" id="linearGradient-4">
            <stop stop-color="#5F2274" offset="0%"></stop>
            <stop stop-color="#301B5A" stop-opacity="0.269340035" offset="100%"></stop>
        </linearGradient>
        <filter x="-274.5%" y="-274.5%" width="649.0%" height="649.0%" filterUnits="objectBoundingBox" id="filter-5">
            <feGaussianBlur stdDeviation="26" in="SourceGraphic"></feGaussianBlur>
        </filter>
        <linearGradient x1="42.0046756%" y1="81.8207946%" x2="38.3216399%" y2="100%" id="linearGradient-6">
            <stop stop-color="#681E65" stop-opacity="0" offset="0%"></stop>
            <stop stop-color="#732477" offset="100%"></stop>
        </linearGradient>
        <linearGradient x1="51.3302471%" y1="47.6611727%" x2="54.4064203%" y2="51.2033031%" id="linearGradient-7">
            <stop stop-color="#7732A4" offset="0%"></stop>
            <stop stop-color="#26175C" stop-opacity="0.36871722" offset="100%"></stop>
        </linearGradient>
        <linearGradient x1="5.93947276%" y1="27.9462712%" x2="87.2301645%" y2="83.7484375%" id="linearGradient-8">
            <stop stop-color="#703CC4" offset="0%"></stop>
            <stop stop-color="#552E80" offset="100%"></stop>
        </linearGradient>
        <circle id="path-9" cx="23.4298507" cy="23.4298507" r="23.4298507"></circle>
        <filter x="-135.4%" y="-135.4%" width="370.8%" height="370.8%" filterUnits="objectBoundingBox" id="filter-11">
            <feGaussianBlur stdDeviation="9" in="SourceGraphic"></feGaussianBlur>
        </filter>
        <linearGradient x1="37.7140192%" y1="13.3130249%" x2="54.0155139%" y2="45.0112744%" id="linearGradient-12">
            <stop stop-color="#47B9FB" offset="0%"></stop>
            <stop stop-color="#6758E1" offset="100%"></stop>
        </linearGradient>
        <path d="M3.31264847,13.8657125 C5.85414916,14.9902943 8.82836092,10.5588814 10.2356059,13.8657125 C11.642851,17.1725435 12.7849394,19.7828922 14.4018431,19.7828922 C16.0187469,19.7828922 15.9528634,11.2261544 18.1114397,14.8215096 C20.2700159,18.4168649 22.5223869,21.9654851 24.1801838,19.7828922 C25.2853818,18.3278302 25.2853818,15.4498368 24.1801838,11.1489117 C24.2595902,8.83076544 25.1149935,8.25122888 26.7463938,9.41030201 C29.1934942,11.1489117 29.8130585,13.2257016 34.9247073,11.8009309 C40.0363561,10.3761602 38.668057,12.2812636 38.668057,13.8657125 C38.668057,15.4501613 41.9060836,16.2005189 42.4263359,16.2005189 C42.9465881,16.2005189 45.1207428,30.6332187 43.0082525,36.7629781 C40.8957622,42.8927375 45.1645569,41.3177006 45.1645569,39.0403393 C45.1645569,36.7629781 52.9293948,12.3688919 43.5999055,7.82260766 C38.668057,4.14481693 43.9672952,3.78164646 39.6920095,2.39192708 C36.841819,1.4654475 33.3376621,-0.0796227197 29.1795386,-2.24328358 L9.48005558,-0.840257696 L2.34938665,10.3761602 C1.29722741,11.9528071 1.61831468,13.1159912 3.31264847,13.8657125 Z" id="path-13"></path>
        <filter x="-10.8%" y="-9.2%" width="121.5%" height="123.1%" filterUnits="objectBoundingBox" id="filter-14">
            <feOffset dx="0" dy="1" in="SourceAlpha" result="shadowOffsetOuter1"></feOffset>
            <feGaussianBlur stdDeviation="1.5" in="shadowOffsetOuter1" result="shadowBlurOuter1"></feGaussianBlur>
            <feColorMatrix values="0 0 0 0 0.298039216   0 0 0 0 0.141176471   0 0 0 0 0.533333333  0 0 0 1 0" type="matrix" in="shadowBlurOuter1"></feColorMatrix>
        </filter>
        <filter x="-10.8%" y="-9.2%" width="121.5%" height="123.1%" filterUnits="objectBoundingBox" id="filter-15">
            <feGaussianBlur stdDeviation="1.5" in="SourceAlpha" result="shadowBlurInner1"></feGaussianBlur>
            <feOffset dx="0" dy="-1" in="shadowBlurInner1" result="shadowOffsetInner1"></feOffset>
            <feComposite in="shadowOffsetInner1" in2="SourceAlpha" operator="arithmetic" k2="-1" k3="1" result="shadowInnerInner1"></feComposite>
            <feColorMatrix values="0 0 0 0 0.380392157   0 0 0 0 0.207843137   0 0 0 0 0.698039216  0 0 0 1 0" type="matrix" in="shadowInnerInner1"></feColorMatrix>
        </filter>
        <linearGradient x1="46.64576%" y1="-32.1889671%" x2="53.0864877%" y2="21.4009316%" id="linearGradient-16">
            <stop stop-color="#BBF4FF" offset="0%"></stop>
            <stop stop-color="#86E6FF" stop-opacity="0" offset="100%"></stop>
        </linearGradient>
        <filter x="-162.6%" y="-462.9%" width="425.3%" height="1025.8%" filterUnits="objectBoundingBox" id="filter-17">
            <feGaussianBlur stdDeviation="5" in="SourceGraphic"></feGaussianBlur>
        </filter>
        <linearGradient x1="9.69911773%" y1="77.8429755%" x2="66.2092317%" y2="98.3624454%" id="linearGradient-18">
            <stop stop-color="#F3C7FF" offset="0%"></stop>
            <stop stop-color="#C284DE" offset="100%"></stop>
        </linearGradient>
        <linearGradient x1="7.38775928%" y1="71.3734989%" x2="66.2092317%" y2="98.3624454%" id="linearGradient-19">
            <stop stop-color="#8FFFF4" offset="0%"></stop>
            <stop stop-color="#04D8D4" offset="100%"></stop>
        </linearGradient>
    </defs>
    <g id="页面-1" stroke="none" stroke-width="1" fill="none" fill-rule="evenodd">
        <g id="本周运程">
            <g id="编组-12">
                <mask id="mask-3" fill="white">
                    <use xlink:href="#path-2"></use>
                </mask>
                <use id="矩形备份-9" fill="url(#linearGradient-1)" xlink:href="#path-2"></use>
                <circle id="椭圆形" fill="url(#linearGradient-4)" mask="url(#mask-3)" cx="13.958209" cy="21.9343284" r="24.9253731"></circle>
                <circle id="椭圆形" fill="#26195F" filter="url(#filter-5)" mask="url(#mask-3)" cx="66.5507463" cy="36.141791" r="14.2074627"></circle>
                <circle id="椭圆形" fill="url(#linearGradient-6)" mask="url(#mask-3)" cx="144.567164" cy="-60.319403" r="99.7014925"></circle>
                <path d="M-0.747761194,77.1786963 C13.2104478,64.8821789 28.9965174,59.5647659 46.6104478,61.2264575 C73.0313433,63.7189948 86.4409423,67.208547 97.9567164,63.7189948 C109.472491,60.2294425 154.497961,32.0058061 174.726866,50.7288184 C188.212802,63.2108265 188.212802,77.0125271 174.726866,92.1339202 L-5.48358209,93.6294425 L-0.747761194,77.1786963 Z" id="路径-18" fill="url(#linearGradient-7)" mask="url(#mask-3)"></path>
                <circle id="椭圆形" fill="#FFD13C" mask="url(#mask-3)" cx="96.461194" cy="33.1507463" r="1"></circle>
                <circle id="椭圆形" fill="#FFD13C" mask="url(#mask-3)" cx="96.461194" cy="33.1507463" r="1"></circle>
                <circle id="椭圆形" fill="#32C5FF" mask="url(#mask-3)" cx="156.531343" cy="25.4238806" r="1"></circle>
                <circle id="椭圆形" fill="#6DD400" mask="url(#mask-3)" cx="106.431343" cy="43.1208955" r="1"></circle>
                <circle id="椭圆形" fill="#FA6400" mask="url(#mask-3)" cx="91.2268657" cy="57.3283582" r="1"></circle>
                <g id="路径-59" mask="url(#mask-3)">
                    <g transform="translate(112.164179, 10.468657)" id="路径-19">
                        <g>
                            <mask id="mask-10" fill="white">
                                <use xlink:href="#path-9"></use>
                            </mask>
                            <use id="蒙版" fill="url(#linearGradient-8)" xlink:href="#path-9"></use>
                            <circle id="椭圆形" fill="#8E43FF" filter="url(#filter-11)" mask="url(#mask-10)" cx="14.9552239" cy="21.9343284" r="9.97014925"></circle>
                            <g mask="url(#mask-10)">
                                <use fill="black" fill-opacity="1" filter="url(#filter-14)" xlink:href="#path-13"></use>
                                <use fill="url(#linearGradient-12)" fill-rule="evenodd" xlink:href="#path-13"></use>
                                <use fill="black" fill-opacity="1" filter="url(#filter-15)" xlink:href="#path-13"></use>
                            </g>
                            <circle id="椭圆形" fill="url(#linearGradient-16)" mask="url(#mask-10)" cx="23.4298507" cy="17.1985075" r="17.6970149"></circle>
                            <ellipse id="椭圆形" fill="#82D6FF" filter="url(#filter-17)" mask="url(#mask-10)" cx="17.3231343" cy="5.60820896" rx="4.61119403" ry="1.62014925"></ellipse>
                            <circle id="椭圆形" stroke="url(#linearGradient-18)" mask="url(#mask-10)" cx="28.1656716" cy="12.2134328" r="28.4134328"></circle>
                            <circle id="椭圆形" stroke="url(#linearGradient-19)" stroke-width="4" mask="url(#mask-10)" cx="28.5395522" cy="11.3410448" r="26.5395522"></circle>
                            <circle id="椭圆形备份-7" stroke="url(#linearGradient-19)" stroke-width="0.5" mask="url(#mask-10)" cx="32.5276119" cy="4.86044776" r="30.5328358"></circle>
                        </g>
                    </g>
                </g>
            </g>
            <g id="编组-11" transform="translate(124.128358, 12.500000)">
                <polygon id="路径-21" fill-opacity="0.54143903" fill="#C7F6FF" fill-rule="nonzero" points="0.578697348 1.43370086 0.916825041 1.06629914 7.45867872 7.12301305 8.46824378 12.6937851 9.990421 19.3096352 6.54839403 23.7475 12.2862149 30.941 18.589578 28.0230102 18.7984817 28.4769898 12.140703 31.5590108 5.91388219 23.7521808 9.45120299 19.1905 7.98013989 12.7947214 6.99804776 7.377"></polygon>
                <ellipse id="椭圆形" fill="#CBFDFF" cx="0.997014925" cy="1" rx="1" ry="1"></ellipse>
                <ellipse id="椭圆形" fill="#9DC4FE" cx="7.47761194" cy="7.5" rx="1" ry="1"></ellipse>
                <ellipse id="椭圆形" fill="#BDA4FF" cx="8.47462687" cy="12.5" rx="1" ry="1"></ellipse>
                <ellipse id="椭圆形" fill="#EBA0FF" cx="9.97014925" cy="19" rx="1" ry="1"></ellipse>
                <ellipse id="椭圆形" fill="#E8FFD7" cx="6.48059701" cy="23.5" rx="1" ry="1"></ellipse>
                <ellipse id="椭圆形" fill="#FE88FF" cx="12.4626866" cy="31" rx="1" ry="1"></ellipse>
                <ellipse id="椭圆形" fill="#D3ADFF" cx="18.9432836" cy="28" rx="1" ry="1"></ellipse>
            </g>
        </g>
    </g>
</svg>