<svg xmlns="http://www.w3.org/2000/svg" width="40" height="39" viewBox="0 0 40 39">
    <g fill="none" fill-rule="nonzero">
        <path fill="#FFA700" d="M30 10.5c5.205 0 9.5 3.758 9.5 8.5s-4.295 8.5-9.5 8.5a1.5 1.5 0 0 1 0-3c3.631 0 6.5-2.51 6.5-5.5s-2.869-5.5-6.5-5.5a1.5 1.5 0 0 1 0-3z"/>
        <path fill="#0B0F22" d="M26.603.79A2 2 0 0 1 27 1.986v34.202a2 2 0 0 1-3.137 1.645L10.426 28.55a3 3 0 0 0-1.706-.531H3a3 3 0 0 1-3-3V13.93a3 3 0 0 1 3-3h5.66a3 3 0 0 0 1.794-.595L23.804.382a2 2 0 0 1 2.8.408zM23 5.281l-10.634 8.097a5.358 5.358 0 0 1-2.994 1.093l-.25.006H4v10.246h5.176c1.017 0 2.012.292 2.873.84l.212.142L23 33.281v-28z"/>
    </g>
</svg>
