<svg xmlns="http://www.w3.org/2000/svg" width="56" height="56" viewBox="0 0 56 56">
    <g fill="none" fill-rule="evenodd">
        <path fill="#FFBD00" d="M30.849 21.231l11.5 10.5A2 2 0 0 1 43 33.208V47H16V33.208a2 2 0 0 1 .651-1.477l11.5-10.5a2 2 0 0 1 2.698 0z"/>
        <path fill="#333" d="M31.023 6.847l20 18.26A3 3 0 0 1 52 27.324V48a3 3 0 0 1-3 3H9a3 3 0 0 1-3-3v-8l.005-.15A2 2 0 0 1 8 38l.15.005a2 2 0 0 1 1.844 1.838L10 40v7h38V27.764L29 10.416 10 27.764V32a2 2 0 1 1-4 0v-4.677a3 3 0 0 1 .977-2.215l20-18.261a3 3 0 0 1 4.046 0zM35 38a2 2 0 0 1 .15 3.995L35 42H23a2 2 0 1 1 0-4h12z"/>
    </g>
</svg>
