<svg xmlns="http://www.w3.org/2000/svg" xmlns:xlink="http://www.w3.org/1999/xlink" width="24" height="24" viewBox="0 0 24 24">
    <defs>
        <path id="a" d="M12 5h2.5A1.5 1.5 0 0 0 16 3.5v-1a.47.47 0 0 0-.791-.344c-1.44 1.346-2.584 2.29-3.51 2.844H12zm5.663 0H19a1 1 0 0 1 1 1v4a1 1 0 0 1-1 1h-1v8a1 1 0 0 1-1 1H3a1 1 0 0 1-1-1v-8H1a1 1 0 0 1-1-1V6a1 1 0 0 1 1-1h1.337A3.486 3.486 0 0 1 2 3.5v-1A2.47 2.47 0 0 1 6.157.695C8.203 2.608 9.618 3.6 10 3.6c.382 0 1.797-.992 3.843-2.905A2.47 2.47 0 0 1 18 2.5v1c0 .537-.12 1.045-.337 1.5zM5.5 5h2.8c-.925-.555-2.069-1.498-3.509-2.844A.47.47 0 0 0 4 2.5v1A1.5 1.5 0 0 0 5.5 5zM9 7v11h2V7H9zm5.5 0H13v2h5V7h-3.5zm-9 0H2v2h5V7H5.5zm7.5 4v7h3v-7h-3zm-6 7v-7H4v7h3z"/>
    </defs>
    <use fill="#8F9DAF" fill-rule="nonzero" transform="translate(2 2)" xlink:href="#a"/>
</svg>
