<svg xmlns="http://www.w3.org/2000/svg" xmlns:xlink="http://www.w3.org/1999/xlink" width="24" height="24" viewBox="0 0 24 24">
    <defs>
        <path id="a" d="M16 16v3a1 1 0 0 1-1 1H1a1 1 0 0 1-1-1V1a1 1 0 0 1 1-1h14a1 1 0 0 1 1 1v3h-2V2H2v16h12v-2h2zm-.98-5H7.049C6.469 11 6 10.552 6 10s.469-1 1.048-1h8.073l-1.878-1.879a1 1 0 0 1 1.414-1.414l2.946 2.946a1.833 1.833 0 0 1 0 2.593l-2.946 2.946a1 1 0 0 1-1.414-1.414L15.02 11z"/>
    </defs>
    <use fill="#8F9DAF" fill-rule="nonzero" transform="translate(3 2)" xlink:href="#a"/>
</svg>
