<svg xmlns="http://www.w3.org/2000/svg" xmlns:xlink="http://www.w3.org/1999/xlink" width="226" height="236" viewBox="0 0 226 236">
    <defs>
        <linearGradient id="a" x1="50%" x2="50%" y1="-15.416%" y2="39.369%">
            <stop offset="0%" stop-color="#E5E5E9"/>
            <stop offset="100%" stop-color="#FFF"/>
        </linearGradient>
        <linearGradient id="b" x1="90.524%" x2="0%" y1="55.327%" y2="34.794%">
            <stop offset="0%" stop-color="#FFF" stop-opacity="0"/>
            <stop offset="98.514%" stop-color="#9E9DA1"/>
            <stop offset="100%" stop-color="#D8D8D8"/>
        </linearGradient>
        <linearGradient id="c" x1="50%" x2="50%" y1="7.684%" y2="100%">
            <stop offset="0%" stop-color="#E6E5E8"/>
            <stop offset="100%" stop-color="#C8C7CC"/>
        </linearGradient>
        <linearGradient id="d" x1="50%" x2="50%" y1="0%" y2="100%">
            <stop offset="0%" stop-color="#616265"/>
            <stop offset="100%" stop-color="#8E8E8E"/>
        </linearGradient>
        <path id="e" d="M.011 2.245C.251 4.83 4.066 10.11 7.22 10.11c3.7.336 6.059-2.4 5.996-4.388-.804-1.485-.358-4.92-5.996-5.226-1.435.802-1.27.511-2.996.478C3.42.96-.23-.342.01 2.244z"/>
        <linearGradient id="f" x1="19.533%" x2="80.358%" y1="36.137%" y2="56.047%">
            <stop offset="0%" stop-color="#FFBF00"/>
            <stop offset="100%" stop-color="#FFA700"/>
        </linearGradient>
    </defs>
    <g fill="none" fill-rule="evenodd">
        <text fill="#6F7072" font-family="PingFangSC-Medium, PingFang SC" font-size="24" font-weight="400" letter-spacing=".667" opacity=".6">
            <tspan x="64" y="233">暂无持仓</tspan>
        </text>
        <g>
            <circle cx="166" cy="145" r="60" fill="url(#a)"/>
            <circle cx="42" cy="145" r="42" fill="url(#a)"/>
            <path fill="url(#b)" d="M46 160.394L176 221l-11.44-69L46 157.822z"/>
            <rect width="124" height="162" x="44" fill="url(#c)" rx="6"/>
            <rect width="109" height="145" x="54" y="8" fill="#EFEFF1" rx="6"/>
            <rect width="38" height="20" x="63" y="23" fill="#FFF" rx="2"/>
            <rect width="38" height="6" x="110" y="23" fill="#FFF" rx="2"/>
            <rect width="38" height="6" x="110" y="37" fill="#FFF" rx="2"/>
            <path fill="#EDEDF0" d="M189.065 29c5.571.273 7.104 2.136 7.104 10.136 0 8 11.534 11.026 11.534 18.679 0 7.653-12.681 15.32-22.001 15.32-9.32 0-12.434-11.965-7.103-15.32 7.103-6.747-4.038-21.482 10.466-28.815z"/>
            <path stroke="#E0DDDD" stroke-linecap="round" stroke-width="2" d="M188.155 44.245c-1.67 6.726-1.13 13.223 1.621 19.49 2.752 6.267 3.444 15.313 2.076 27.137M195.705 49.25c.632 7.441-1.313 12.26-5.834 14.456"/>
            <path fill="#EDEDF0" d="M24.839 69c3.343.164 4.262 1.282 4.262 6.082s6.921 6.615 6.921 11.207c0 4.592-7.609 9.193-13.2 9.193-5.593 0-7.461-7.18-4.263-9.193 4.262-4.048-2.422-12.89 6.28-17.289z"/>
            <path stroke="#E0DDDD" stroke-linecap="round" stroke-width="1.2" d="M24.293 78.147c-1.002 4.036-.678 7.934.973 11.694 1.65 3.76 2.066 9.188 1.245 16.282M28.823 81.15c.38 4.465-.788 7.356-3.5 8.674"/>
            <path fill="#FFC8BA" d="M133.172 97c2.139.136 3.51.774 4.111 1.914.904 1.71 7.151 6.761 7.151 9.634 0 1.915-1.197 2.15-3.59.703-1.721-5.442-3.43-8.163-5.127-8.163-1.697 0-2.545-1.362-2.545-4.088z"/>
            <path fill="#FFD1C5" d="M138.843 111.971c-1.819 4.334-1.184 7.095 1.903 8.283 0 1.25-.082 2.017-.246 2.302l8.09 3.017c-2.77-4.85-3.095-7.754-.975-8.714.57-.96-2.355-2.588-8.772-4.888z"/>
            <path fill="#FFC8BA" d="M129.675 128.679c-.9 2.236-.9 4.233 0 5.993 1.35 2.64 2.075 6.442 3.623 6.442s6.34-6.342 5.425-9.031c-.61-1.793-2.065-2.003-4.364-.631l-1.06 3.949c-1.314-.594-1.97-2.418-1.97-5.474-.19-.883-.74-1.3-1.654-1.248z"/>
            <path fill="#282C35" d="M134.474 187.003c3.884-.037 5.97.296 6.254 1 .427 1.056-.588 2.896-.588 2.896s-3.512.052-6.108-2.896c-.103-.453.044-.786.442-1zM142.7 186.423c3.885-.037 5.97.297 6.254 1 .427 1.057-.588 2.897-.588 2.897s-3.512.051-6.107-2.896c-.104-.453.044-.787.441-1z"/>
            <path fill="url(#d)" d="M6.206 54.996c-.226 6.802-.075 12.124.453 15.967.79 5.764 1.404 20.306 1.404 20.306s.455.764 1.506 1.108c.326.107.921-.036 1.785-.427.423-7.421.634-11.996.634-13.725 0-2.593.497-8.53 1.77-11.455 1.035.466.452 2.554.452 4.735 0 1.454.792 7.536 2.376 18.247.206 1.379 1.214 1.918 3.023 1.618.041-1.411.411-13.745 0-16.805-.412-3.06 3.359-16.665 1.473-20.833-1.257-2.779-6.215-2.358-14.876 1.264z" transform="translate(129 97)"/>
            <path fill="#FFA700" d="M133.087 131.655c.803-5.891 3.375-9.147 7.714-9.767.423 1.555 4.275 2.82 5.654 0 .073-1.135-.059-1.932-.395-2.393 2.503-1.595 4.019-1.595 4.546 0 .969 1.155 1.879 6.594 0 10.074-.03 2.656-.03 10.034 0 22.133-3.578 3.935-9.018 3.935-16.319 0-.156-3.901.398-13.962.907-14.812.34-.566.579-2.058.717-4.474l-2.824-.761z"/>
            <g transform="translate(136.714 107.183)">
                <mask id="g" fill="#fff">
                    <use xlink:href="#e"/>
                </mask>
                <use fill="#FFA700" xlink:href="#e"/>
                <path fill="url(#f)" d="M5.149 1.03C1.716 2.772 1.379 5.46 4.135 9.09c2.757 3.631 5.784 4.464 9.081 2.499L13.648.496S6.778-1 6.496-1c-.188 0-.637.677-1.347 2.03z" mask="url(#g)"/>
            </g>
            <rect width="46" height="25" x="58" y="139" fill="#D7D7DD" rx="6" transform="rotate(-15 81 151.5)"/>
            <rect width="46" height="38" x="75" y="136" fill="#E2E2E6" rx="6"/>
            <path fill="#F5F5F5" d="M80.398 173l10.436-21.135L98 166.518l5.179-9.151L115.85 173z"/>
            <path fill="#C9C8CD" d="M8 157h40v8c0 2.761-8.954 5-20 5s-20-2.239-20-5v-8z"/>
            <ellipse cx="28" cy="157" fill="#EFEFF1" rx="20" ry="5"/>
        </g>
    </g>
</svg>
