<svg xmlns="http://www.w3.org/2000/svg" width="20" height="20" viewBox="0 0 20 20">
    <path fill="#F83600" fill-rule="nonzero" d="M13.262 5c.499 0 .887.388.832.943v7.433c0 .499-.389.943-.888.943h-.166l-.61-.222a.558.558 0 0 1-.278-.61c.056-.222.333-.333.555-.278l.5.167V6.054l-6.49 2.274H4.33a.437.437 0 0 0-.443.444v1.83c0 .222.221.444.443.444h2.441l3.827 1.331-.055-4.604c0-.277.222-.499.443-.499.222 0 .444.167.444.444l.056 5.214a.504.504 0 0 1-.167.388c-.11.056-.222.111-.388.056l-1.997-.721.167.72c.166.61-.222 1.221-.832 1.387l-.444.111c-.111.056-.167.056-.278.056-.221 0-.443-.056-.61-.167a1.09 1.09 0 0 1-.499-.72l-.5-2.164H4.332c-.72 0-1.331-.61-1.331-1.387v-1.83c0-.777.61-1.387 1.331-1.387h2.163L13.095 5h.167zm-5.048 8.653l-.277-1.276-.999-.333.388 1.775c.056.111.056.167.111.167.056.055.111.055.167.055l.444-.11a.305.305 0 0 0 .166-.278zm7.518-3.012a.51.51 0 0 1 0-1.018h1.759a.51.51 0 1 1 0 1.018h-1.76zm.359-2.425a.51.51 0 0 1-.718-.723l1.247-1.24a.51.51 0 0 1 .718.722l-1.247 1.24zm-.708 4.565a.51.51 0 0 1 .697-.742l1.283 1.204a.51.51 0 1 1-.698.743l-1.282-1.205z"/>
</svg>
