<svg xmlns="http://www.w3.org/2000/svg" width="31" height="30" viewBox="0 0 31 30">
    <defs>
        <linearGradient id="a" x1="22.903%" x2="83.452%" y1="9.066%" y2="100%">
            <stop offset="0%" stop-color="#0091FF"/>
            <stop offset="100%" stop-color="#6236FF"/>
        </linearGradient>
    </defs>
    <g fill="none" fill-rule="evenodd">
        <path fill="url(#a)" fill-rule="nonzero" d="M.5 15c0 8.284 6.716 15 15 15 8.284 0 15-6.716 15-15 0-8.284-6.716-15-15-15C7.216 0 .5 6.716.5 15z"/>
        <path fill="#FFF" d="M16 8c1.66 0 3 1.34 3 3s-1.34 3-3 3-3-1.34-3-3 1.34-3 3-3zM16 22.2a7.2 7.2 0 0 1-6-3.22c.03-1.99 4-3.08 6-3.08 1.99 0 5.97 1.09 6 3.08a7.2 7.2 0 0 1-6 3.22z"/>
    </g>
</svg>
