<svg xmlns="http://www.w3.org/2000/svg" width="24" height="24" style="background:#fff" viewBox="0 0 24 24">
    <defs>
        <linearGradient id="a" x1="100%" x2="0%" y1="78.584%" y2="21.416%">
            <stop offset="0%" stop-color="#F83600"/>
            <stop offset="100%" stop-color="#F9D423"/>
        </linearGradient>
    </defs>
    <g fill="none" fill-rule="evenodd">
        <path fill="#FFF" d="M0 0h24v24H0z"/>
        <path fill="url(#a)" fill-rule="nonzero" d="M21.536 8.382c.81.508 1.32 1.397 1.32 2.483 0 1.625-1.108 2.969-2.929 2.969-.396 0-.713-.283-.713-.637V8.603c0-.283.238-.566.555-.637l.018.004c-.384-1.558-1.278-3.012-2.58-4.143-1.554-1.35-3.53-2.125-5.423-2.125-4.326 0-7.838 2.642-8.693 6.268l.015-.004c.317.071.555.354.555.636v4.595c0 .354-.317.637-.713.637-1.821 0-2.93-1.343-2.93-2.97 0-1.091.517-1.986 1.337-2.491C2.07 3.656 6.474.014 11.784.014c2.405 0 4.863 1.015 6.744 2.784 1.653 1.554 2.692 3.5 3.007 5.584zM11.769 3.33c3.137 0 6.708 2.713 6.708 6.444-.108 3.842-3.029 6.67-6.818 6.67-.418 0-1.44-.106-1.9-.113a.393.393 0 0 1-.093-.013l-.215-.056a.385.385 0 0 0-.318.058l-.164.115a.403.403 0 0 1-.028.017l-1.339.778c-.266.155-.593-.046-.593-.365V15.41a.424.424 0 0 0-.16-.334l-.26-.205a.466.466 0 0 1-.023-.019c-1.4-1.244-2.153-3.048-2.153-5.078 0-3.619 3.244-6.444 7.356-6.444zM7.551 10.9c.537 0 .973-.456.973-1.018 0-.27-.102-.528-.285-.719a.963.963 0 0 0-.688-.298c-.538 0-.974.455-.974 1.017 0 .562.436 1.018.974 1.018zm3.786 0c.537 0 .973-.456.973-1.018 0-.27-.102-.528-.285-.719a.964.964 0 0 0-.69-.298c-.536 0-.971.456-.971 1.017 0 .562.435 1.018.973 1.018zm3.786 0c.537 0 .973-.456.973-1.018 0-.27-.102-.528-.284-.719a.964.964 0 0 0-.688-.298h-.001c-.538 0-.973.455-.973 1.017 0 .562.435 1.018.973 1.018z" transform="translate(.5 3)"/>
    </g>
</svg>
