<svg xmlns="http://www.w3.org/2000/svg" width="49" height="41" viewBox="0 0 49 41">
    <g fill="none" fill-rule="evenodd">
        <path fill="#282C35" fill-rule="nonzero" d="M42.785 13.976C40.182 5.86 33.01 0 24.571 0 16.164 0 9.015 5.816 6.387 13.89 2.824 14.16 0 17.323 0 21.183v5.332c0 4.036 3.086 7.32 6.879 7.32h3.682c1.06 0 1.92-.859 1.92-1.92V15.783c0-1.06-.86-1.92-1.92-1.92h-.09c2.406-5.895 7.815-10.022 14.1-10.022 6.286 0 11.697 4.127 14.1 10.022h-.74c-1.061 0-1.92.86-1.92 1.92v16.134c0 .487.187.928.487 1.267-2.871 3.32-7.096 5.216-12.292 5.216a1.28 1.28 0 1 0 0 2.56c6.453 0 11.697-2.633 15.03-7.123h2.376c3.792 0 6.878-3.284 6.878-7.32v-5.333c.002-3.611-2.469-6.611-5.705-7.207zM8.641 21.96v8.037H6.88c-1.676 0-3.039-1.562-3.039-3.48v-5.333a3.865 3.865 0 0 1 .161-1.066 3.73 3.73 0 0 1 .27-.69c.01-.023.02-.048.032-.07a3.246 3.246 0 0 1 1.157-1.233c.199-.12.41-.217.632-.288.023-.007.043-.017.066-.023a2.5 2.5 0 0 1 .72-.11h1.763v4.256zm36.01 4.555c0 1.919-1.363 3.48-3.038 3.48h-1.761V17.703h1.762c.833 0 1.59.388 2.14 1.014.588.687.908 1.564.899 2.468v5.331h-.001z"/>
        <path fill="#FFA700" d="M23.67 31.535c2.217 0 4.461-.838 6.137-2.54a1.779 1.779 0 0 0 0-2.488 1.779 1.779 0 0 0-2.487 0 5.172 5.172 0 0 1-7.326 0 1.779 1.779 0 0 0-2.487 0 1.78 1.78 0 0 0 0 2.487 8.698 8.698 0 0 0 6.163 2.541z"/>
    </g>
</svg>
