<svg xmlns="http://www.w3.org/2000/svg" width="41" height="41" viewBox="0 0 41 41">
    <g fill="none" fill-rule="nonzero">
        <path fill="#282C35" d="M23.89.036a2.996 2.996 0 0 1 3.029 2.966v.35c0 1.72 1.418 3.124 3.159 3.124.553 0 1.102-.149 1.575-.419l.32-.185a3.083 3.083 0 0 1 1.525-.404c1.076 0 2.079.562 2.623 1.476l3.744 6.331c.842 1.422.343 3.236-1.107 4.054l-.31.176c-1.53.864-2.056 2.754-1.188 4.221.275.463.67.85 1.143 1.116l.315.175c1.453.81 1.962 2.633 1.116 4.06l-3.744 6.326a3.022 3.022 0 0 1-1.845 1.378 3.098 3.098 0 0 1-2.281-.288l-.316-.176a3.294 3.294 0 0 0-3.177-.018 3.075 3.075 0 0 0-1.165 1.125 2.969 2.969 0 0 0-.419 1.521v.351a2.927 2.927 0 0 1-.9 2.12 3.057 3.057 0 0 1-2.123.855H16.38a2.997 2.997 0 0 1-3.024-2.948l-.005-.351a3.083 3.083 0 0 0-.936-2.196 3.178 3.178 0 0 0-3.793-.49l-.315.184c-.464.261-.99.4-1.521.4a3.04 3.04 0 0 1-2.619-1.475L.414 27.053a2.929 2.929 0 0 1 1.103-4.045l.306-.176a3.112 3.112 0 0 0 1.489-1.894 2.958 2.958 0 0 0-.31-2.323 3.105 3.105 0 0 0-1.157-1.12l-.31-.175A2.923 2.923 0 0 1 .41 13.261L4.154 6.93a3.026 3.026 0 0 1 1.845-1.377 3.1 3.1 0 0 1 2.281.293l.32.175a3.29 3.29 0 0 0 3.181.022 3.067 3.067 0 0 0 1.17-1.129c.274-.468.418-.999.414-1.534v-.356A2.91 2.91 0 0 1 14.256.9a3.057 3.057 0 0 1 2.137-.86h7.497V.037zM16.547 3.23a.563.563 0 0 0-.378.149.415.415 0 0 0-.131.306l.005.341a5.198 5.198 0 0 1-.734 2.714 5.4 5.4 0 0 1-2.034 1.966 5.552 5.552 0 0 1-5.387-.031l-.306-.171a.554.554 0 0 0-.413-.054.5.5 0 0 0-.306.225l-3.6 6.08c-.122.202-.05.458.184.585l.301.166A5.34 5.34 0 0 1 5.76 17.46a5.242 5.242 0 0 1 .545 4.086 5.378 5.378 0 0 1-2.561 3.262l-.297.167c-.225.13-.297.383-.175.58l3.6 6.08a.519.519 0 0 0 .45.238.533.533 0 0 0 .274-.072l.306-.17a5.458 5.458 0 0 1 2.696-.712c1.43 0 2.79.554 3.811 1.549a5.326 5.326 0 0 1 1.62 3.811v.337c0 .234.22.446.509.446h7.2a.527.527 0 0 0 .373-.148.423.423 0 0 0 .13-.302v-.337a5.232 5.232 0 0 1 .739-2.691 5.357 5.357 0 0 1 2.029-1.967 5.547 5.547 0 0 1 5.377.027l.302.171a.575.575 0 0 0 .414.05.5.5 0 0 0 .306-.225l3.6-6.076c.121-.202.05-.459-.18-.584l-.302-.167a5.323 5.323 0 0 1-1.998-1.948c-1.52-2.57-.602-5.873 2.026-7.358l.296-.166c.23-.131.297-.383.176-.585l-3.596-6.08a.521.521 0 0 0-.45-.239.533.533 0 0 0-.274.072l-.306.171c-.823.473-1.76.72-2.709.72a5.417 5.417 0 0 1-5.436-5.395v-.337c0-.239-.216-.45-.508-.45l-7.2.013z"/>
        <path fill="#000" d="M20.16 23.4a3.238 3.238 0 0 0 3.24-3.24 3.238 3.238 0 0 0-3.24-3.24 3.238 3.238 0 0 0-3.24 3.24 3.238 3.238 0 0 0 3.24 3.24zm0 3.24a6.482 6.482 0 0 1-6.48-6.48 6.482 6.482 0 0 1 6.48-6.48 6.482 6.482 0 0 1 6.48 6.48 6.482 6.482 0 0 1-6.48 6.48z"/>
    </g>
</svg>
