<svg xmlns="http://www.w3.org/2000/svg" width="56" height="56" viewBox="0 0 56 56">
    <g fill="none" fill-rule="evenodd" transform="translate(5 9)">
        <path fill="#FFBD00" d="M4 24h38v10H4z"/>
        <path fill="#282C35" d="M44 0a2 2 0 0 1 2 2v34a2 2 0 0 1-1.85 1.995L44 38H2a2 2 0 0 1-2-2V23h3.999v11H42V4H4v9H0V2a2 2 0 0 1 2-2h42zm-7.08 12.636a2 2 0 0 1 0 2.828l-9.9 9.9c-.328.329-.743.52-1.171.571l-.162.013h-.161a1.993 1.993 0 0 1-1.19-.454l-.144-.13-5.657-5.658-5.656 5.658a2 2 0 0 1-2.829-2.828l7.071-7.072c.37-.37.85-.564 1.334-.584h.161c.424.017.844.169 1.19.454l.144.13 5.656 5.657 8.486-8.485a2 2 0 0 1 2.828 0z"/>
        <circle cx="2" cy="23" r="2" fill="#282C35"/>
        <circle cx="2" cy="13" r="2" fill="#282C35"/>
        <circle cx="2" cy="23" r="2" fill="#282C35"/>
        <circle cx="2" cy="13" r="2" fill="#282C35"/>
    </g>
</svg>
