<svg xmlns="http://www.w3.org/2000/svg" xmlns:xlink="http://www.w3.org/1999/xlink" width="31" height="30" viewBox="0 0 31 30">
    <defs>
        <linearGradient id="a" x1="22.903%" x2="83.452%" y1="9.066%" y2="100%">
            <stop offset="0%" stop-color="#FFB143"/>
            <stop offset="100%" stop-color="#FB7927"/>
        </linearGradient>
        <path id="c" d="M11.25 10.642c3.669 0 7.985 3.611 10.315 2.41 2.33-1.202.402-10.314-2.192-12.253-2.594-1.938-5.366.488-8.123.488-2.757 0-5.351-2.426-7.945-.488C.71 2.74-1.216 11.85 1.113 13.052c2.33 1.201 6.468-2.41 10.137-2.41z"/>
        <filter id="b" width="162.1%" height="205.7%" x="-31%" y="-37.7%" filterUnits="objectBoundingBox">
            <feOffset dy="2" in="SourceAlpha" result="shadowOffsetOuter1"/>
            <feGaussianBlur in="shadowOffsetOuter1" result="shadowBlurOuter1" stdDeviation="2"/>
            <feColorMatrix in="shadowBlurOuter1" values="0 0 0 0 0.735988451 0 0 0 0 0.302585496 0 0 0 0 0.0858840182 0 0 0 0.316843313 0"/>
        </filter>
    </defs>
    <g fill="none" fill-rule="evenodd">
        <path fill="url(#a)" d="M0 15c0 8.284 6.716 15 15 15 8.284 0 15-6.716 15-15 0-8.284-6.716-15-15-15C6.716 0 0 6.716 0 15z" transform="translate(.5)"/>
        <g transform="translate(4.25 8.375)">
            <use fill="#000" filter="url(#b)" xlink:href="#c"/>
            <use fill="#FFF" xlink:href="#c"/>
        </g>
        <path fill="#F8832E" d="M10 13.5V12a1 1 0 0 1 2 0v1.5h1.5a1 1 0 0 1 0 2H12V17a1 1 0 0 1-2 0v-1.5H8.5a1 1 0 0 1 0-2H10z"/>
        <path fill="#FEC63B" d="M20 12.634l2.598-1.5a1 1 0 0 1 1 1.732L21 14.366a1 1 0 1 1-1-1.732z"/>
        <path fill="#F8832E" d="M20 16.134l2.598-1.5a1 1 0 0 1 1 1.732L21 17.866a1 1 0 1 1-1-1.732z"/>
    </g>
</svg>