<svg xmlns="http://www.w3.org/2000/svg" xmlns:xlink="http://www.w3.org/1999/xlink" width="30" height="30" viewBox="0 0 30 30">
    <defs>
        <path id="a" d="M15 0C6.716 0 0 6.716 0 15c0 8.284 6.716 15 15 15 8.284 0 15-6.716 15-15 0-8.284-6.716-15-15-15z"/>
        <radialGradient id="b" cx="71.699%" cy="95.059%" r="100.023%" fx="71.699%" fy="95.059%">
            <stop offset="0%" stop-color="#3E82EB"/>
            <stop offset="100%" stop-color="#3E82EB"/>
        </radialGradient>
    </defs>
    <g fill="none" fill-rule="evenodd">
        <g>
            <mask id="c" fill="#fff">
                <use xlink:href="#a"/>
            </mask>
            <path fill="url(#b)" d="M15 0C6.716 0 0 6.716 0 15c0 8.284 6.716 15 15 15 8.284 0 15-6.716 15-15 0-8.284-6.716-15-15-15z" mask="url(#c)"/>
        </g>
        <g fill="#FFF">
            <path d="M19.127 12.057c.075-.236.054-.457-.123-.64-.178-.182-.398-.213-.636-.137l-.272.087-9.941 3.252c-.563.184-1.126.369-1.688.556a.554.554 0 0 0-.403.525.554.554 0 0 0 .343.565c.213.1.428.197.643.295 1.032.47 2.064.94 3.098 1.406.371.168.711.055.855-.273.14-.318-.006-.63-.375-.801-.15-.07-.301-.137-.452-.205l-1.907-.866 9.412-3.08-2.997 9.536c-.041-.076-.063-.112-.081-.15l-1.185-2.46c-.274-.568-.54-1.14-.819-1.705-.206-.417-.66-.487-.993-.162-.06.058-.123.112-.182.17-1.792 1.793-3.583 3.586-5.378 5.376-.13.13-.247.266-.33.43v.268c.231.543.67.632 1.092.212.89-.887 1.777-1.777 2.666-2.666.767-.767 1.535-1.532 2.3-2.3.076-.077.116-.099.169.02.102.233.217.46.328.69.657 1.365 1.314 2.73 1.974 4.094.131.27.337.396.607.37.272-.027.437-.193.516-.445.347-1.098.691-2.197 1.037-3.295l1.822-5.789c.301-.959.6-1.919.9-2.878"/>
            <path d="M24.074 9.759c-1.626-2.627-3.996-4.092-7.083-4.32-1.813-.132-3.517.294-5.085 1.23-1.687 1.007-2.89 2.432-3.66 4.233a.587.587 0 0 0 .28.777c.301.145.626.031.783-.286.173-.348.323-.708.526-1.04 1.082-1.769 2.616-2.948 4.621-3.492a7.417 7.417 0 0 1 3.782-.05c2.008.498 3.579 1.623 4.7 3.356A7.416 7.416 0 0 1 24.14 14a7.601 7.601 0 0 1-1.084 4.235 7.615 7.615 0 0 1-3.042 2.88c-.48.253-.985.444-1.507.593-.255.072-.454.21-.497.493-.07.461.322.781.795.648a9 9 0 0 0 2.352-1.035 8.74 8.74 0 0 0 2.731-2.685c.922-1.423 1.398-2.99 1.443-5.133.016-1.233-.375-2.812-1.257-4.237"/>
            <path d="M18.91 20.038c1.263-.537 2.264-1.376 2.976-2.55a6.05 6.05 0 0 0 .835-4.163c-.254-1.672-1.067-3.023-2.404-4.05-1.062-.817-2.276-1.228-3.614-1.276-.077 0-.153-.002-.23 0-1.928.064-3.52.827-4.763 2.305a5.847 5.847 0 0 0-.792 1.236c-.167.347-.016.731.33.845.291.095.58-.048.747-.37 1.03-1.99 3.08-3.085 5.228-2.791 2.21.302 3.992 2.006 4.317 4.202.312 2.113-.458 3.79-2.18 5.039-.307.222-.655.365-.995.527-.356.17-.473.55-.269.86.14.212.428.35.814.186"/>
        </g>
    </g>
</svg>
