<svg xmlns="http://www.w3.org/2000/svg" width="56" height="56" viewBox="0 0 56 56">
    <path fill="#AFB5BD" fill-rule="evenodd" d="M49 9a2 2 0 0 1 2 2v34a2 2 0 0 1-1.85 1.995L49 47H7a2 2 0 0 1-2-2V11a2 2 0 0 1 2-2h42zm-2 4H9l-.001 30H47V13zm-5.08 8.636a2 2 0 0 1 0 2.828l-9.9 9.9c-.328.329-.743.52-1.171.571l-.162.013h-.161a1.993 1.993 0 0 1-1.19-.454l-.144-.13-5.657-5.658-5.656 5.658a2 2 0 0 1-2.829-2.828l7.071-7.072c.37-.37.85-.564 1.334-.584h.161c.424.017.844.169 1.19.454l.144.13 5.656 5.657 8.486-8.485a2 2 0 0 1 2.828 0z"/>
</svg>
