<svg xmlns="http://www.w3.org/2000/svg" width="62" height="62" viewBox="0 0 62 62">
    <g fill="none" fill-rule="evenodd" transform="translate(5 5)">
        <path fill="#282C35" fill-rule="nonzero" d="M47.218 0C50.411 0 53 2.552 53 5.7v7.6c0 3.148-2.589 5.7-5.782 5.7H44v-3.8h3.218a1.917 1.917 0 0 0 1.922-1.752l.005-.148V5.7c0-1.05-.862-1.9-1.927-1.9H5.782c-1.065 0-1.927.85-1.927 1.9v7.6c0 1.05.862 1.9 1.927 1.9H10V19H5.782C2.662 19 .12 16.565.004 13.519L0 13.3V5.7C0 2.552 2.589 0 5.782 0z"/>
        <rect width="40" height="4" x="7" y="10" fill="#282C35" rx="2"/>
        <path stroke="#FFA700" stroke-width="4" d="M17 25v7h19v-7H17z"/>
        <path fill="#282C35" fill-rule="nonzero" d="M7.91 21c1.006 0 1.83.791 1.903 1.795l.005.144v26.182h34.364V23.382c0-1.022.779-1.86 1.766-1.934l.143-.005c1.006 0 1.83.791 1.904 1.795l.005.144v27.679c0 1.022-.779 1.86-1.767 1.934l-.142.005H7.909c-1.006 0-1.83-.791-1.904-1.795L6 51.061V22.939C6 21.87 6.855 21 7.91 21z"/>
    </g>
</svg>
