<svg xmlns="http://www.w3.org/2000/svg" xmlns:xlink="http://www.w3.org/1999/xlink" width="24" height="24" viewBox="0 0 24 24">
    <defs>
        <path id="a" d="M12.938 3v.316c0 .61-.504 1.105-1.126 1.105a1.115 1.115 0 0 1-1.124-1.105V3H7.312v.316c0 .61-.503 1.105-1.125 1.105a1.115 1.115 0 0 1-1.125-1.105V3H2v2.526h14V3h-3.063zm0-1.895h2.812c1.243 0 2.25.99 2.25 2.21V19.79C18 21.01 16.993 22 15.75 22H2.25C1.007 22 0 21.01 0 19.79V3.315c0-1.221 1.007-2.21 2.25-2.21h2.813C5.063.494 5.566 0 6.188 0c.62 0 1.125.495 1.125 1.105h3.375c0-.61.503-1.105 1.124-1.105.622 0 1.126.495 1.126 1.105zM2 7.737V20h14V7.737H2zm7.264 9.627l1.163-1.164H5.4a.9.9 0 1 1 0-1.8h7.2c.802 0 1.204.97.637 1.537l-2.7 2.7a.9.9 0 1 1-1.273-1.273zm-.526-6.828L7.575 11.7h5.027a.9.9 0 1 1 0 1.8h-7.2c-.802 0-1.204-.97-.637-1.536l2.7-2.7a.9.9 0 1 1 1.273 1.272z"/>
    </defs>
    <use fill="#8F9DAF" fill-rule="nonzero" transform="translate(3 1)" xlink:href="#a"/>
</svg>
