<svg xmlns="http://www.w3.org/2000/svg" width="53" height="56" viewBox="0 0 53 56">
  <g id="提现" transform="translate(0 0)">
    <path id="形状结合" d="M10,19H5.782A5.748,5.748,0,0,1,0,13.3V5.7A5.748,5.748,0,0,1,5.782,0H47.219A5.748,5.748,0,0,1,53,5.7v7.6A5.748,5.748,0,0,1,47.219,19H44V15.2h3.218a1.916,1.916,0,0,0,1.927-1.9V5.7a1.916,1.916,0,0,0-1.927-1.9H5.782A1.916,1.916,0,0,0,3.855,5.7v7.6a1.916,1.916,0,0,0,1.927,1.9H10V19Z" fill="#282c35"/>
    <rect id="矩形" width="40" height="4" rx="2" transform="translate(7 10)" fill="#282c35"/>
    <g id="矩形-2" data-name="矩形" transform="translate(15 23)" fill="none" stroke="#fff" stroke-miterlimit="10" stroke-width="4">
      <path d="M0,0H23a0,0,0,0,1,0,0V9a2,2,0,0,1-2,2H2A2,2,0,0,1,0,9V0A0,0,0,0,1,0,0Z" stroke="none"/>
      <path d="M4,2H19a2,2,0,0,1,2,2V9a0,0,0,0,1,0,0H2A0,0,0,0,1,2,9V4A2,2,0,0,1,4,2Z" fill="none"/>
    </g>
    <path id="联合_2" data-name="联合 2" d="M-1169-5627a4,4,0,0,1-4-4v-29h0a2,2,0,0,1,2-2,2,2,0,0,1,2,2h0v27a2,2,0,0,0,2,2h30a2,2,0,0,0,2-2v-27h0a2,2,0,0,1,2-2,2,2,0,0,1,2,2c0,.024,0,.048,0,.072V-5631a4,4,0,0,1-4,4Z" transform="translate(1179 5683)" fill="#282c35"/>
  </g>
</svg>
