<svg xmlns="http://www.w3.org/2000/svg" xmlns:xlink="http://www.w3.org/1999/xlink" width="60" height="184" viewBox="0 0 60 184">
  <defs>
    <clipPath id="clip-path">
      <path id="矩形_49" data-name="矩形 49" d="M0,0H52a8,8,0,0,1,8,8V176a8,8,0,0,1-8,8H0a0,0,0,0,1,0,0V0A0,0,0,0,1,0,0Z" fill="#fff" stroke="#cdcecf" stroke-width="1"/>
    </clipPath>
  </defs>
  <g id="蒙版组_6" data-name="蒙版组 6" clip-path="url(#clip-path)">
    <g id="联合_8" data-name="联合 8" transform="translate(60 189) rotate(180)" fill="none">
      <path d="M56.661,189H8a8,8,0,0,1-8-8V13A8,8,0,0,1,8,5H55.826c0-2.759.934-5,2.086-5S60,2.24,60,5c0,2.349-.676,4.32-1.588,4.857v.289C59.324,10.682,60,12.652,60,15s-.676,4.318-1.588,4.855v.289C59.324,20.682,60,22.652,60,25s-.676,4.317-1.588,4.854v.289C59.324,30.681,60,32.652,60,35s-.676,4.318-1.588,4.855v.289C59.324,40.681,60,42.652,60,45s-.676,4.319-1.588,4.856v.289C59.324,50.682,60,52.653,60,55s-.676,4.319-1.588,4.856v.289C59.324,60.682,60,62.652,60,65s-.676,4.319-1.588,4.856v.289C59.324,70.682,60,72.652,60,75s-.676,4.319-1.588,4.856v.289C59.324,80.682,60,82.652,60,85s-.676,4.318-1.588,4.855v.289C59.324,90.682,60,92.652,60,95s-.676,4.318-1.588,4.855v.289C59.324,100.681,60,102.651,60,105s-.676,4.319-1.588,4.856v.289C59.324,110.682,60,112.651,60,115s-.676,4.319-1.588,4.856v.289C59.324,120.682,60,122.652,60,125s-.676,4.32-1.588,4.857v.289C59.324,130.682,60,132.652,60,135s-.676,4.319-1.588,4.856v.289C59.324,140.681,60,142.652,60,145s-.676,4.317-1.588,4.854v.289C59.324,150.681,60,152.652,60,155s-.676,4.317-1.588,4.854v.289C59.324,160.681,60,162.652,60,165s-.676,4.318-1.588,4.855v.289C59.324,170.681,60,172.651,60,175s-.676,4.319-1.588,4.856v.289C59.324,180.681,60,182.651,60,185c0,2.762-.935,5-2.088,5C57.443,190,57.009,189.628,56.661,189Z" stroke="none"/>
      <path d="M 57.9126091003418 188.9897308349609 C 58.01242446899414 188.9267578125 58.28654861450195 188.6562957763672 58.54612731933594 187.9444732666016 C 58.8390007019043 187.1413116455078 59.00030136108398 186.0954284667969 59.00030136108398 184.99951171875 C 59.00030136108398 182.6334533691406 58.28702545166016 181.2311859130859 57.9051513671875 181.0062255859375 L 57.41270065307617 180.7161560058594 L 57.41270065307617 180.1446075439453 L 57.41270065307617 179.8554077148438 L 57.41270065307617 179.2838745117188 L 57.9051513671875 178.9937744140625 C 58.28702545166016 178.7688293457031 59.00030136108398 177.3662719726563 59.00030136108398 174.9996032714844 C 59.00030136108398 172.6331024169922 58.28694915771484 171.2304534912109 57.90502548217773 171.0054016113281 L 57.41270065307617 170.7152862548828 L 57.41270065307617 170.1438598632813 L 57.41270065307617 169.8546600341797 L 57.41270065307617 169.2830352783203 L 57.90527725219727 168.9929504394531 C 58.28710174560547 168.7680969238281 59.00030136108398 167.3659515380859 59.00030136108398 164.9997100830078 C 59.00030136108398 162.6332092285156 58.28694915771484 161.2305603027344 57.90502548217773 161.0055084228516 L 57.41270065307617 160.7153778076172 L 57.41270065307617 160.1439514160156 L 57.41270065307617 159.8547058105469 L 57.41270065307617 159.2831573486328 L 57.90517425537109 158.9930725097656 C 58.28705215454102 158.7681274414063 59.00030136108398 157.3661499023438 59.00030136108398 155.0007019042969 C 59.00030136108398 152.6336059570313 58.28692626953125 151.2306518554688 57.90499877929688 151.0055847167969 L 57.41270065307617 150.7154846191406 L 57.41270065307617 150.1440582275391 L 57.41270065307617 149.8547515869141 L 57.41270065307617 149.2833099365234 L 57.90502548217773 148.9932098388672 C 58.28694915771484 148.7681579589844 59.00030136108398 147.3660583496094 59.00030136108398 145.0008087158203 C 59.00030136108398 142.6336822509766 58.28694915771484 141.2307586669922 57.90502548217773 141.0057067871094 L 57.41270065307617 140.715576171875 L 57.41270065307617 140.1441497802734 L 57.41270065307617 139.8549041748047 L 57.41270065307617 139.2833862304688 L 57.9051513671875 138.9932861328125 C 58.28702545166016 138.7683258056641 59.00030136108398 137.3657836914063 59.00030136108398 134.9990997314453 C 59.00030136108398 132.6336517333984 58.28705215454102 131.2316741943359 57.90517425537109 131.0067291259766 L 57.41270065307617 130.7166595458984 L 57.41270065307617 130.1451110839844 L 57.41270065307617 129.8558502197266 L 57.41270065307617 129.284423828125 L 57.90499877929688 128.9943237304688 C 58.28692626953125 128.7692565917969 59.00030136108398 127.3663024902344 59.00030136108398 124.9992065429688 C 59.00030136108398 122.6337509155273 58.28702545166016 121.2317504882813 57.9051513671875 121.0068054199219 L 57.41270065307617 120.7167282104492 L 57.41270065307617 120.1451797485352 L 57.41270065307617 119.85595703125 L 57.41270065307617 119.2845306396484 L 57.90502548217773 118.9944076538086 C 58.28694915771484 118.7693557739258 59.00030136108398 117.3667068481445 59.00030136108398 115.0002059936523 C 59.00030136108398 112.6339569091797 58.28710174560547 111.2317810058594 57.90527725219727 111.0069274902344 L 57.41270065307617 110.7168579101563 L 57.41270065307617 110.1452255249023 L 57.41270065307617 109.8560562133789 L 57.41270065307617 109.2846298217773 L 57.90502548217773 108.9945068359375 C 58.28694915771484 108.7694549560547 59.00030136108398 107.3668060302734 59.00030136108398 105.0003051757813 C 59.00030136108398 102.6336059570313 58.28702545166016 101.2310791015625 57.9051513671875 101.0061264038086 L 57.41270065307617 100.7160568237305 L 57.41270065307617 100.1445007324219 L 57.41270065307617 99.85525512695313 L 57.41270065307617 99.28382873535156 L 57.90502548217773 98.99370574951172 C 58.28694915771484 98.76865386962891 59.00030136108398 97.36625671386719 59.00030136108398 95.00040435791016 C 59.00030136108398 92.63390350341797 58.28694915771484 91.23125457763672 57.90502548217773 91.00620269775391 L 57.41270065307617 90.71607971191406 L 57.41270065307617 90.1446533203125 L 57.41270065307617 89.85535430908203 L 57.41270065307617 89.28392791748047 L 57.90502548217773 88.99380493164063 C 58.28694915771484 88.76875305175781 59.00030136108398 87.36635589599609 59.00030136108398 85.00050354003906 C 59.00030136108398 82.63400268554688 58.28694915771484 81.23135375976563 57.90502548217773 81.00630187988281 L 57.41270065307617 80.71617889404297 L 57.41270065307617 80.14475250244141 L 57.41270065307617 79.85550689697266 L 57.41270065307617 79.28398132324219 L 57.9051513671875 78.99388122558594 C 58.28702545166016 78.76892852783203 59.00030136108398 77.36637878417969 59.00030136108398 74.99970245361328 C 59.00030136108398 72.63382720947266 58.28694915771484 71.23145294189453 57.90502548217773 71.00640106201172 L 57.41270065307617 70.71630096435547 L 57.41270065307617 70.14485168457031 L 57.41270065307617 69.85555267333984 L 57.41270065307617 69.28412628173828 L 57.90502548217773 68.99400329589844 C 58.28694915771484 68.76895141601563 59.00030136108398 67.36630249023438 59.00030136108398 64.99980163574219 C 59.00030136108398 62.63393020629883 58.28694915771484 61.23152923583984 57.90502548217773 61.00647735595703 L 57.41270065307617 60.71635437011719 L 57.41270065307617 60.14492797851563 L 57.41270065307617 59.85565567016602 L 57.41270065307617 59.28422927856445 L 57.90502548217773 58.99410247802734 C 58.28694915771484 58.7690544128418 59.00030136108398 57.36640548706055 59.00030136108398 54.99990463256836 C 59.00030136108398 52.63402938842773 58.28694915771484 51.23162841796875 57.90502548217773 51.0065803527832 L 57.41270065307617 50.71645355224609 L 57.41270065307617 50.1450309753418 L 57.41270065307617 49.85580444335938 L 57.41270065307617 49.28427886962891 L 57.9051513671875 48.99417877197266 C 58.28702545166016 48.76922988891602 59.00030136108398 47.36668014526367 59.00030136108398 45.00000381469727 C 59.00030136108398 42.63350296020508 58.28694915771484 41.23085403442383 57.90502548217773 41.00580596923828 L 57.41270065307617 40.71567916870117 L 57.41270065307617 40.14425277709961 L 57.41270065307617 39.85505294799805 L 57.41270065307617 39.28342819213867 L 57.90527725219727 38.99335479736328 C 58.28710174560547 38.76850509643555 59.00030136108398 37.36635589599609 59.00030136108398 35.00010299682617 C 59.00030136108398 32.63360595703125 58.28694915771484 31.23095512390137 57.90502548217773 31.00590515136719 L 57.41270065307617 30.71577835083008 L 57.41270065307617 30.14435386657715 L 57.41270065307617 29.85510444641113 L 57.41270065307617 29.28355407714844 L 57.9051513671875 28.99347877502441 C 58.28702545166016 28.76852989196777 59.00030136108398 27.36652946472168 59.00030136108398 25.0011043548584 C 59.00030136108398 22.63442993164063 58.28702545166016 21.23187828063965 57.9051513671875 21.00692939758301 L 57.41270065307617 20.71682929992676 L 57.41270065307617 20.14530372619629 L 57.41270065307617 19.85605430603027 L 57.41270065307617 19.28460502624512 L 57.90502548217773 18.99450492858887 C 58.28694915771484 18.76945495605469 59.00030136108398 17.36707878112793 59.00030136108398 15.00120449066162 C 59.00030136108398 12.63452911376953 58.28702545166016 11.23197937011719 57.9051513671875 11.00702953338623 L 57.41270065307617 10.71692943572998 L 57.41270065307617 10.14540386199951 L 57.41270065307617 9.856154441833496 L 57.41270065307617 9.28472900390625 L 57.90499877929688 8.99462890625 C 58.28692626953125 8.769554138183594 59.00030136108398 7.366604328155518 59.00030136108398 4.999504089355469 C 59.00030136108398 3.904729127883911 58.83905029296875 2.859504222869873 58.54622650146484 2.056329250335693 C 58.28664779663086 1.344284772872925 58.01246643066406 1.073449969291687 57.91252136230469 1.010224223136902 C 57.81256866455078 1.073687672615051 57.53857803344727 1.34505832195282 57.27935028076172 2.057254314422607 C 56.98707580566406 2.860304117202759 56.82609939575195 3.905229330062866 56.82609939575195 5.000404357910156 L 56.82609939575195 6.000404357910156 L 55.82609939575195 6.000404357910156 L 8.000101089477539 6.000404357910156 C 4.140225887298584 6.000404357910156 1.000000715255737 9.140628814697266 1.000000715255737 13.00050449371338 L 1.000000715255737 180.9999084472656 C 1.000000715255737 184.8597717285156 4.140225887298584 188 8.000101089477539 188 L 56.66052627563477 188 L 57.24902725219727 188 L 57.53475189208984 188.5144805908203 C 57.70204544067383 188.8157043457031 57.84733963012695 188.9483184814453 57.9126091003418 188.9897308349609 M 57.91230010986328 189.9999084472656 C 57.44267654418945 189.9999084472656 57.00920104980469 189.6278076171875 56.66052627563477 189 L 8.000101089477539 189 C 3.582000732421875 189 6.805419729971618e-07 185.4179992675781 6.805419729971618e-07 180.9999084472656 L 6.805419729971618e-07 13.00050449371338 C 6.805419729971618e-07 8.582404136657715 3.582000732421875 5.000404357910156 8.000101089477539 5.000404357910156 L 55.82609939575195 5.000404357910156 C 55.82609939575195 5.000054359436035 55.82609939575195 4.99985408782959 55.82609939575195 4.999504089355469 C 55.82609939575195 2.240104198455811 56.76029968261719 4.223632913635811e-06 57.91230010986328 4.223632913635811e-06 C 59.06520080566406 4.223632913635811e-06 60.00030136108398 2.240104198455811 60.00030136108398 4.999504089355469 C 60.00030136108398 7.348404407501221 59.32407379150391 9.319079399108887 58.41270065307617 9.856154441833496 L 58.41270065307617 10.14540386199951 C 59.32407379150391 10.68227958679199 60.00030136108398 12.65230464935303 60.00030136108398 15.00120449066162 C 60.00030136108398 17.34857940673828 59.32407379150391 19.31902885437012 58.41270065307617 19.85605430603027 L 58.41270065307617 20.14530372619629 C 59.32407379150391 20.68217849731445 60.00030136108398 22.6522045135498 60.00030136108398 25.0011043548584 C 60.00030136108398 27.34847831726074 59.32407379150391 29.3182544708252 58.41270065307617 29.85510444641113 L 58.41270065307617 30.14435386657715 C 59.32407379150391 30.68140411376953 60.00030136108398 32.6519775390625 60.00030136108398 35.00010299682617 C 60.00030136108398 37.34900283813477 59.32407379150391 39.31837844848633 58.41270065307617 39.85505294799805 L 58.41270065307617 40.14425277709961 C 59.32407379150391 40.68130493164063 60.00030136108398 42.65187835693359 60.00030136108398 45.00000381469727 C 60.00030136108398 47.34890365600586 59.32407379150391 49.31892776489258 58.41270065307617 49.85580444335938 L 58.41270065307617 50.1450309753418 C 59.32407379150391 50.68207931518555 60.00030136108398 52.65253067016602 60.00030136108398 54.99990463256836 C 60.00030136108398 57.34803009033203 59.32407379150391 59.318603515625 58.41270065307617 59.85565567016602 L 58.41270065307617 60.14492797851563 C 59.32407379150391 60.68198013305664 60.00030136108398 62.65242767333984 60.00030136108398 64.99980163574219 C 60.00030136108398 67.34793090820313 59.32407379150391 69.31850433349609 58.41270065307617 69.85555267333984 L 58.41270065307617 70.14485168457031 C 59.32407379150391 70.68187713623047 60.00030136108398 72.65232849121094 60.00030136108398 74.99970245361328 C 60.00030136108398 77.34860229492188 59.32407379150391 79.31862640380859 58.41270065307617 79.85550689697266 L 58.41270065307617 80.14475250244141 C 59.32407379150391 80.68180084228516 60.00030136108398 82.65238189697266 60.00030136108398 85.00050354003906 C 60.00030136108398 87.34787750244141 59.32407379150391 89.31830596923828 58.41270065307617 89.85535430908203 L 58.41270065307617 90.1446533203125 C 59.32407379150391 90.68170166015625 60.00030136108398 92.65228271484375 60.00030136108398 95.00040435791016 C 60.00030136108398 97.3477783203125 59.32407379150391 99.31820678710938 58.41270065307617 99.85525512695313 L 58.41270065307617 100.1445007324219 C 59.32407379150391 100.6813507080078 60.00030136108398 102.6514053344727 60.00030136108398 105.0003051757813 C 60.00030136108398 107.3484268188477 59.32407379150391 109.3190078735352 58.41270065307617 109.8560562133789 L 58.41270065307617 110.1452255249023 C 59.32407379150391 110.6819076538086 60.00030136108398 112.6513061523438 60.00030136108398 115.0002059936523 C 60.00030136108398 117.3483276367188 59.32407379150391 119.3189010620117 58.41270065307617 119.85595703125 L 58.41270065307617 120.1451797485352 C 59.32407379150391 120.6820297241211 60.00030136108398 122.6518325805664 60.00030136108398 124.9992065429688 C 60.00030136108398 127.3481063842773 59.32407379150391 129.3187866210938 58.41270065307617 129.8558502197266 L 58.41270065307617 130.1451110839844 C 59.32407379150391 130.6819305419922 60.00030136108398 132.6517333984375 60.00030136108398 134.9990997314453 C 60.00030136108398 137.3480072021484 59.32407379150391 139.3180236816406 58.41270065307617 139.8549041748047 L 58.41270065307617 140.1441497802734 C 59.32407379150391 140.6811981201172 60.00030136108398 142.6519012451172 60.00030136108398 145.0008087158203 C 60.00030136108398 147.3473968505859 59.32407379150391 149.3177337646484 58.41270065307617 149.8547515869141 L 58.41270065307617 150.1440582275391 C 59.32407379150391 150.6811218261719 60.00030136108398 152.6518096923828 60.00030136108398 155.0007019042969 C 60.00030136108398 157.3480834960938 59.32407379150391 159.3178863525391 58.41270065307617 159.8547058105469 L 58.41270065307617 160.1439514160156 C 59.32407379150391 160.6809997558594 60.00030136108398 162.6515808105469 60.00030136108398 164.9997100830078 C 60.00030136108398 167.3486022949219 59.32407379150391 169.3179779052734 58.41270065307617 169.8546600341797 L 58.41270065307617 170.1438598632813 C 59.32407379150391 170.680908203125 60.00030136108398 172.6514739990234 60.00030136108398 174.9996032714844 C 60.00030136108398 177.3485107421875 59.32407379150391 179.3185272216797 58.41270065307617 179.8554077148438 L 58.41270065307617 180.1446075439453 C 59.32407379150391 180.6814575195313 60.00030136108398 182.6513824462891 60.00030136108398 184.99951171875 C 60.00030136108398 187.7615966796875 59.06520080566406 189.9999084472656 57.91230010986328 189.9999084472656 Z" stroke="none" fill="#cdcecf"/>
    </g>
  </g>
</svg>
